%TF.GenerationSoftware,KiCad,Pcbnew,9.0.1*%
%TF.CreationDate,2025-07-11T00:17:53-07:00*%
%TF.ProjectId,KICAD PROJECT,4b494341-4420-4505-924f-4a4543542e6b,rev?*%
%TF.SameCoordinates,Original*%
%TF.FileFunction,Copper,L1,Top*%
%TF.FilePolarity,Positive*%
%FSLAX46Y46*%
G04 Gerber Fmt 4.6, Leading zero omitted, Abs format (unit mm)*
G04 Created by KiCad (PCBNEW 9.0.1) date 2025-07-11 00:17:53*
%MOMM*%
%LPD*%
G01*
G04 APERTURE LIST*
G04 Aperture macros list*
%AMRoundRect*
0 Rectangle with rounded corners*
0 $1 Rounding radius*
0 $2 $3 $4 $5 $6 $7 $8 $9 X,Y pos of 4 corners*
0 Add a 4 corners polygon primitive as box body*
4,1,4,$2,$3,$4,$5,$6,$7,$8,$9,$2,$3,0*
0 Add four circle primitives for the rounded corners*
1,1,$1+$1,$2,$3*
1,1,$1+$1,$4,$5*
1,1,$1+$1,$6,$7*
1,1,$1+$1,$8,$9*
0 Add four rect primitives between the rounded corners*
20,1,$1+$1,$2,$3,$4,$5,0*
20,1,$1+$1,$4,$5,$6,$7,0*
20,1,$1+$1,$6,$7,$8,$9,0*
20,1,$1+$1,$8,$9,$2,$3,0*%
G04 Aperture macros list end*
%ADD10C,0.100000*%
%ADD11C,0.150000*%
%ADD12C,0.300000*%
%ADD13C,0.400000*%
%TA.AperFunction,ComponentPad*%
%ADD14C,1.800000*%
%TD*%
%TA.AperFunction,SMDPad,CuDef*%
%ADD15RoundRect,0.237500X-0.237500X0.287500X-0.237500X-0.287500X0.237500X-0.287500X0.237500X0.287500X0*%
%TD*%
%TA.AperFunction,SMDPad,CuDef*%
%ADD16R,1.000000X1.700000*%
%TD*%
%TA.AperFunction,SMDPad,CuDef*%
%ADD17RoundRect,0.237500X-0.287500X-0.237500X0.287500X-0.237500X0.287500X0.237500X-0.287500X0.237500X0*%
%TD*%
%TA.AperFunction,ComponentPad*%
%ADD18C,4.400000*%
%TD*%
%TA.AperFunction,SMDPad,CuDef*%
%ADD19R,1.700000X1.000000*%
%TD*%
%TA.AperFunction,SMDPad,CuDef*%
%ADD20RoundRect,0.237500X-0.237500X0.250000X-0.237500X-0.250000X0.237500X-0.250000X0.237500X0.250000X0*%
%TD*%
%TA.AperFunction,SMDPad,CuDef*%
%ADD21RoundRect,0.237500X0.237500X-0.250000X0.237500X0.250000X-0.237500X0.250000X-0.237500X-0.250000X0*%
%TD*%
%TA.AperFunction,ComponentPad*%
%ADD22C,2.100000*%
%TD*%
%TA.AperFunction,ComponentPad*%
%ADD23C,1.750000*%
%TD*%
%TA.AperFunction,ComponentPad*%
%ADD24R,1.700000X1.700000*%
%TD*%
%TA.AperFunction,ComponentPad*%
%ADD25O,1.700000X1.700000*%
%TD*%
%TA.AperFunction,ComponentPad*%
%ADD26RoundRect,0.250000X-0.350000X-0.625000X0.350000X-0.625000X0.350000X0.625000X-0.350000X0.625000X0*%
%TD*%
%TA.AperFunction,ComponentPad*%
%ADD27O,1.200000X1.750000*%
%TD*%
%TA.AperFunction,HeatsinkPad*%
%ADD28O,1.100000X1.700000*%
%TD*%
%TA.AperFunction,ComponentPad*%
%ADD29C,1.700000*%
%TD*%
%TA.AperFunction,ViaPad*%
%ADD30C,0.600000*%
%TD*%
%TA.AperFunction,Conductor*%
%ADD31C,0.200000*%
%TD*%
%TA.AperFunction,Conductor*%
%ADD32C,0.300000*%
%TD*%
%TA.AperFunction,Conductor*%
%ADD33C,0.800000*%
%TD*%
G04 APERTURE END LIST*
D10*
D11*
X177002200Y-166007200D02*
X285002200Y-166007200D01*
X285002200Y-198007200D01*
X177002200Y-198007200D01*
X177002200Y-166007200D01*
D10*
D11*
X10000000Y-10000000D02*
X287002200Y-10000000D01*
X287002200Y-200007200D01*
X10000000Y-200007200D01*
X10000000Y-10000000D01*
D10*
D11*
X12000000Y-12000000D02*
X285002200Y-12000000D01*
X285002200Y-198007200D01*
X12000000Y-198007200D01*
X12000000Y-12000000D01*
D10*
D11*
X60000000Y-12000000D02*
X60000000Y-10000000D01*
D10*
D11*
X110000000Y-12000000D02*
X110000000Y-10000000D01*
D10*
D11*
X160000000Y-12000000D02*
X160000000Y-10000000D01*
D10*
D11*
X210000000Y-12000000D02*
X210000000Y-10000000D01*
D10*
D11*
X260000000Y-12000000D02*
X260000000Y-10000000D01*
D10*
D11*
X36089160Y-11593604D02*
X35346303Y-11593604D01*
X35717731Y-11593604D02*
X35717731Y-10293604D01*
X35717731Y-10293604D02*
X35593922Y-10479319D01*
X35593922Y-10479319D02*
X35470112Y-10603128D01*
X35470112Y-10603128D02*
X35346303Y-10665033D01*
D10*
D11*
X85346303Y-10417414D02*
X85408207Y-10355509D01*
X85408207Y-10355509D02*
X85532017Y-10293604D01*
X85532017Y-10293604D02*
X85841541Y-10293604D01*
X85841541Y-10293604D02*
X85965350Y-10355509D01*
X85965350Y-10355509D02*
X86027255Y-10417414D01*
X86027255Y-10417414D02*
X86089160Y-10541223D01*
X86089160Y-10541223D02*
X86089160Y-10665033D01*
X86089160Y-10665033D02*
X86027255Y-10850747D01*
X86027255Y-10850747D02*
X85284398Y-11593604D01*
X85284398Y-11593604D02*
X86089160Y-11593604D01*
D10*
D11*
X135284398Y-10293604D02*
X136089160Y-10293604D01*
X136089160Y-10293604D02*
X135655826Y-10788842D01*
X135655826Y-10788842D02*
X135841541Y-10788842D01*
X135841541Y-10788842D02*
X135965350Y-10850747D01*
X135965350Y-10850747D02*
X136027255Y-10912652D01*
X136027255Y-10912652D02*
X136089160Y-11036461D01*
X136089160Y-11036461D02*
X136089160Y-11345985D01*
X136089160Y-11345985D02*
X136027255Y-11469795D01*
X136027255Y-11469795D02*
X135965350Y-11531700D01*
X135965350Y-11531700D02*
X135841541Y-11593604D01*
X135841541Y-11593604D02*
X135470112Y-11593604D01*
X135470112Y-11593604D02*
X135346303Y-11531700D01*
X135346303Y-11531700D02*
X135284398Y-11469795D01*
D10*
D11*
X185965350Y-10726938D02*
X185965350Y-11593604D01*
X185655826Y-10231700D02*
X185346303Y-11160271D01*
X185346303Y-11160271D02*
X186151064Y-11160271D01*
D10*
D11*
X236027255Y-10293604D02*
X235408207Y-10293604D01*
X235408207Y-10293604D02*
X235346303Y-10912652D01*
X235346303Y-10912652D02*
X235408207Y-10850747D01*
X235408207Y-10850747D02*
X235532017Y-10788842D01*
X235532017Y-10788842D02*
X235841541Y-10788842D01*
X235841541Y-10788842D02*
X235965350Y-10850747D01*
X235965350Y-10850747D02*
X236027255Y-10912652D01*
X236027255Y-10912652D02*
X236089160Y-11036461D01*
X236089160Y-11036461D02*
X236089160Y-11345985D01*
X236089160Y-11345985D02*
X236027255Y-11469795D01*
X236027255Y-11469795D02*
X235965350Y-11531700D01*
X235965350Y-11531700D02*
X235841541Y-11593604D01*
X235841541Y-11593604D02*
X235532017Y-11593604D01*
X235532017Y-11593604D02*
X235408207Y-11531700D01*
X235408207Y-11531700D02*
X235346303Y-11469795D01*
D10*
D11*
X285965350Y-10293604D02*
X285717731Y-10293604D01*
X285717731Y-10293604D02*
X285593922Y-10355509D01*
X285593922Y-10355509D02*
X285532017Y-10417414D01*
X285532017Y-10417414D02*
X285408207Y-10603128D01*
X285408207Y-10603128D02*
X285346303Y-10850747D01*
X285346303Y-10850747D02*
X285346303Y-11345985D01*
X285346303Y-11345985D02*
X285408207Y-11469795D01*
X285408207Y-11469795D02*
X285470112Y-11531700D01*
X285470112Y-11531700D02*
X285593922Y-11593604D01*
X285593922Y-11593604D02*
X285841541Y-11593604D01*
X285841541Y-11593604D02*
X285965350Y-11531700D01*
X285965350Y-11531700D02*
X286027255Y-11469795D01*
X286027255Y-11469795D02*
X286089160Y-11345985D01*
X286089160Y-11345985D02*
X286089160Y-11036461D01*
X286089160Y-11036461D02*
X286027255Y-10912652D01*
X286027255Y-10912652D02*
X285965350Y-10850747D01*
X285965350Y-10850747D02*
X285841541Y-10788842D01*
X285841541Y-10788842D02*
X285593922Y-10788842D01*
X285593922Y-10788842D02*
X285470112Y-10850747D01*
X285470112Y-10850747D02*
X285408207Y-10912652D01*
X285408207Y-10912652D02*
X285346303Y-11036461D01*
D10*
D11*
X60000000Y-198007200D02*
X60000000Y-200007200D01*
D10*
D11*
X110000000Y-198007200D02*
X110000000Y-200007200D01*
D10*
D11*
X160000000Y-198007200D02*
X160000000Y-200007200D01*
D10*
D11*
X210000000Y-198007200D02*
X210000000Y-200007200D01*
D10*
D11*
X260000000Y-198007200D02*
X260000000Y-200007200D01*
D10*
D11*
X36089160Y-199600804D02*
X35346303Y-199600804D01*
X35717731Y-199600804D02*
X35717731Y-198300804D01*
X35717731Y-198300804D02*
X35593922Y-198486519D01*
X35593922Y-198486519D02*
X35470112Y-198610328D01*
X35470112Y-198610328D02*
X35346303Y-198672233D01*
D10*
D11*
X85346303Y-198424614D02*
X85408207Y-198362709D01*
X85408207Y-198362709D02*
X85532017Y-198300804D01*
X85532017Y-198300804D02*
X85841541Y-198300804D01*
X85841541Y-198300804D02*
X85965350Y-198362709D01*
X85965350Y-198362709D02*
X86027255Y-198424614D01*
X86027255Y-198424614D02*
X86089160Y-198548423D01*
X86089160Y-198548423D02*
X86089160Y-198672233D01*
X86089160Y-198672233D02*
X86027255Y-198857947D01*
X86027255Y-198857947D02*
X85284398Y-199600804D01*
X85284398Y-199600804D02*
X86089160Y-199600804D01*
D10*
D11*
X135284398Y-198300804D02*
X136089160Y-198300804D01*
X136089160Y-198300804D02*
X135655826Y-198796042D01*
X135655826Y-198796042D02*
X135841541Y-198796042D01*
X135841541Y-198796042D02*
X135965350Y-198857947D01*
X135965350Y-198857947D02*
X136027255Y-198919852D01*
X136027255Y-198919852D02*
X136089160Y-199043661D01*
X136089160Y-199043661D02*
X136089160Y-199353185D01*
X136089160Y-199353185D02*
X136027255Y-199476995D01*
X136027255Y-199476995D02*
X135965350Y-199538900D01*
X135965350Y-199538900D02*
X135841541Y-199600804D01*
X135841541Y-199600804D02*
X135470112Y-199600804D01*
X135470112Y-199600804D02*
X135346303Y-199538900D01*
X135346303Y-199538900D02*
X135284398Y-199476995D01*
D10*
D11*
X185965350Y-198734138D02*
X185965350Y-199600804D01*
X185655826Y-198238900D02*
X185346303Y-199167471D01*
X185346303Y-199167471D02*
X186151064Y-199167471D01*
D10*
D11*
X236027255Y-198300804D02*
X235408207Y-198300804D01*
X235408207Y-198300804D02*
X235346303Y-198919852D01*
X235346303Y-198919852D02*
X235408207Y-198857947D01*
X235408207Y-198857947D02*
X235532017Y-198796042D01*
X235532017Y-198796042D02*
X235841541Y-198796042D01*
X235841541Y-198796042D02*
X235965350Y-198857947D01*
X235965350Y-198857947D02*
X236027255Y-198919852D01*
X236027255Y-198919852D02*
X236089160Y-199043661D01*
X236089160Y-199043661D02*
X236089160Y-199353185D01*
X236089160Y-199353185D02*
X236027255Y-199476995D01*
X236027255Y-199476995D02*
X235965350Y-199538900D01*
X235965350Y-199538900D02*
X235841541Y-199600804D01*
X235841541Y-199600804D02*
X235532017Y-199600804D01*
X235532017Y-199600804D02*
X235408207Y-199538900D01*
X235408207Y-199538900D02*
X235346303Y-199476995D01*
D10*
D11*
X285965350Y-198300804D02*
X285717731Y-198300804D01*
X285717731Y-198300804D02*
X285593922Y-198362709D01*
X285593922Y-198362709D02*
X285532017Y-198424614D01*
X285532017Y-198424614D02*
X285408207Y-198610328D01*
X285408207Y-198610328D02*
X285346303Y-198857947D01*
X285346303Y-198857947D02*
X285346303Y-199353185D01*
X285346303Y-199353185D02*
X285408207Y-199476995D01*
X285408207Y-199476995D02*
X285470112Y-199538900D01*
X285470112Y-199538900D02*
X285593922Y-199600804D01*
X285593922Y-199600804D02*
X285841541Y-199600804D01*
X285841541Y-199600804D02*
X285965350Y-199538900D01*
X285965350Y-199538900D02*
X286027255Y-199476995D01*
X286027255Y-199476995D02*
X286089160Y-199353185D01*
X286089160Y-199353185D02*
X286089160Y-199043661D01*
X286089160Y-199043661D02*
X286027255Y-198919852D01*
X286027255Y-198919852D02*
X285965350Y-198857947D01*
X285965350Y-198857947D02*
X285841541Y-198796042D01*
X285841541Y-198796042D02*
X285593922Y-198796042D01*
X285593922Y-198796042D02*
X285470112Y-198857947D01*
X285470112Y-198857947D02*
X285408207Y-198919852D01*
X285408207Y-198919852D02*
X285346303Y-199043661D01*
D10*
D11*
X10000000Y-60000000D02*
X12000000Y-60000000D01*
D10*
D11*
X10000000Y-110000000D02*
X12000000Y-110000000D01*
D10*
D11*
X10000000Y-160000000D02*
X12000000Y-160000000D01*
D10*
D11*
X10690476Y-35222176D02*
X11309523Y-35222176D01*
X10566666Y-35593604D02*
X10999999Y-34293604D01*
X10999999Y-34293604D02*
X11433333Y-35593604D01*
D10*
D11*
X11092857Y-84912652D02*
X11278571Y-84974557D01*
X11278571Y-84974557D02*
X11340476Y-85036461D01*
X11340476Y-85036461D02*
X11402380Y-85160271D01*
X11402380Y-85160271D02*
X11402380Y-85345985D01*
X11402380Y-85345985D02*
X11340476Y-85469795D01*
X11340476Y-85469795D02*
X11278571Y-85531700D01*
X11278571Y-85531700D02*
X11154761Y-85593604D01*
X11154761Y-85593604D02*
X10659523Y-85593604D01*
X10659523Y-85593604D02*
X10659523Y-84293604D01*
X10659523Y-84293604D02*
X11092857Y-84293604D01*
X11092857Y-84293604D02*
X11216666Y-84355509D01*
X11216666Y-84355509D02*
X11278571Y-84417414D01*
X11278571Y-84417414D02*
X11340476Y-84541223D01*
X11340476Y-84541223D02*
X11340476Y-84665033D01*
X11340476Y-84665033D02*
X11278571Y-84788842D01*
X11278571Y-84788842D02*
X11216666Y-84850747D01*
X11216666Y-84850747D02*
X11092857Y-84912652D01*
X11092857Y-84912652D02*
X10659523Y-84912652D01*
D10*
D11*
X11402380Y-135469795D02*
X11340476Y-135531700D01*
X11340476Y-135531700D02*
X11154761Y-135593604D01*
X11154761Y-135593604D02*
X11030952Y-135593604D01*
X11030952Y-135593604D02*
X10845238Y-135531700D01*
X10845238Y-135531700D02*
X10721428Y-135407890D01*
X10721428Y-135407890D02*
X10659523Y-135284080D01*
X10659523Y-135284080D02*
X10597619Y-135036461D01*
X10597619Y-135036461D02*
X10597619Y-134850747D01*
X10597619Y-134850747D02*
X10659523Y-134603128D01*
X10659523Y-134603128D02*
X10721428Y-134479319D01*
X10721428Y-134479319D02*
X10845238Y-134355509D01*
X10845238Y-134355509D02*
X11030952Y-134293604D01*
X11030952Y-134293604D02*
X11154761Y-134293604D01*
X11154761Y-134293604D02*
X11340476Y-134355509D01*
X11340476Y-134355509D02*
X11402380Y-134417414D01*
D10*
D11*
X10659523Y-185593604D02*
X10659523Y-184293604D01*
X10659523Y-184293604D02*
X10969047Y-184293604D01*
X10969047Y-184293604D02*
X11154761Y-184355509D01*
X11154761Y-184355509D02*
X11278571Y-184479319D01*
X11278571Y-184479319D02*
X11340476Y-184603128D01*
X11340476Y-184603128D02*
X11402380Y-184850747D01*
X11402380Y-184850747D02*
X11402380Y-185036461D01*
X11402380Y-185036461D02*
X11340476Y-185284080D01*
X11340476Y-185284080D02*
X11278571Y-185407890D01*
X11278571Y-185407890D02*
X11154761Y-185531700D01*
X11154761Y-185531700D02*
X10969047Y-185593604D01*
X10969047Y-185593604D02*
X10659523Y-185593604D01*
D10*
D11*
X287002200Y-60000000D02*
X285002200Y-60000000D01*
D10*
D11*
X287002200Y-110000000D02*
X285002200Y-110000000D01*
D10*
D11*
X287002200Y-160000000D02*
X285002200Y-160000000D01*
D10*
D11*
X285692676Y-35222176D02*
X286311723Y-35222176D01*
X285568866Y-35593604D02*
X286002199Y-34293604D01*
X286002199Y-34293604D02*
X286435533Y-35593604D01*
D10*
D11*
X286095057Y-84912652D02*
X286280771Y-84974557D01*
X286280771Y-84974557D02*
X286342676Y-85036461D01*
X286342676Y-85036461D02*
X286404580Y-85160271D01*
X286404580Y-85160271D02*
X286404580Y-85345985D01*
X286404580Y-85345985D02*
X286342676Y-85469795D01*
X286342676Y-85469795D02*
X286280771Y-85531700D01*
X286280771Y-85531700D02*
X286156961Y-85593604D01*
X286156961Y-85593604D02*
X285661723Y-85593604D01*
X285661723Y-85593604D02*
X285661723Y-84293604D01*
X285661723Y-84293604D02*
X286095057Y-84293604D01*
X286095057Y-84293604D02*
X286218866Y-84355509D01*
X286218866Y-84355509D02*
X286280771Y-84417414D01*
X286280771Y-84417414D02*
X286342676Y-84541223D01*
X286342676Y-84541223D02*
X286342676Y-84665033D01*
X286342676Y-84665033D02*
X286280771Y-84788842D01*
X286280771Y-84788842D02*
X286218866Y-84850747D01*
X286218866Y-84850747D02*
X286095057Y-84912652D01*
X286095057Y-84912652D02*
X285661723Y-84912652D01*
D10*
D11*
X286404580Y-135469795D02*
X286342676Y-135531700D01*
X286342676Y-135531700D02*
X286156961Y-135593604D01*
X286156961Y-135593604D02*
X286033152Y-135593604D01*
X286033152Y-135593604D02*
X285847438Y-135531700D01*
X285847438Y-135531700D02*
X285723628Y-135407890D01*
X285723628Y-135407890D02*
X285661723Y-135284080D01*
X285661723Y-135284080D02*
X285599819Y-135036461D01*
X285599819Y-135036461D02*
X285599819Y-134850747D01*
X285599819Y-134850747D02*
X285661723Y-134603128D01*
X285661723Y-134603128D02*
X285723628Y-134479319D01*
X285723628Y-134479319D02*
X285847438Y-134355509D01*
X285847438Y-134355509D02*
X286033152Y-134293604D01*
X286033152Y-134293604D02*
X286156961Y-134293604D01*
X286156961Y-134293604D02*
X286342676Y-134355509D01*
X286342676Y-134355509D02*
X286404580Y-134417414D01*
D10*
D11*
X285661723Y-185593604D02*
X285661723Y-184293604D01*
X285661723Y-184293604D02*
X285971247Y-184293604D01*
X285971247Y-184293604D02*
X286156961Y-184355509D01*
X286156961Y-184355509D02*
X286280771Y-184479319D01*
X286280771Y-184479319D02*
X286342676Y-184603128D01*
X286342676Y-184603128D02*
X286404580Y-184850747D01*
X286404580Y-184850747D02*
X286404580Y-185036461D01*
X286404580Y-185036461D02*
X286342676Y-185284080D01*
X286342676Y-185284080D02*
X286280771Y-185407890D01*
X286280771Y-185407890D02*
X286156961Y-185531700D01*
X286156961Y-185531700D02*
X285971247Y-185593604D01*
X285971247Y-185593604D02*
X285661723Y-185593604D01*
D10*
D11*
X200458026Y-193793328D02*
X200458026Y-192293328D01*
X200458026Y-192293328D02*
X200815169Y-192293328D01*
X200815169Y-192293328D02*
X201029455Y-192364757D01*
X201029455Y-192364757D02*
X201172312Y-192507614D01*
X201172312Y-192507614D02*
X201243741Y-192650471D01*
X201243741Y-192650471D02*
X201315169Y-192936185D01*
X201315169Y-192936185D02*
X201315169Y-193150471D01*
X201315169Y-193150471D02*
X201243741Y-193436185D01*
X201243741Y-193436185D02*
X201172312Y-193579042D01*
X201172312Y-193579042D02*
X201029455Y-193721900D01*
X201029455Y-193721900D02*
X200815169Y-193793328D01*
X200815169Y-193793328D02*
X200458026Y-193793328D01*
X202600884Y-193793328D02*
X202600884Y-193007614D01*
X202600884Y-193007614D02*
X202529455Y-192864757D01*
X202529455Y-192864757D02*
X202386598Y-192793328D01*
X202386598Y-192793328D02*
X202100884Y-192793328D01*
X202100884Y-192793328D02*
X201958026Y-192864757D01*
X202600884Y-193721900D02*
X202458026Y-193793328D01*
X202458026Y-193793328D02*
X202100884Y-193793328D01*
X202100884Y-193793328D02*
X201958026Y-193721900D01*
X201958026Y-193721900D02*
X201886598Y-193579042D01*
X201886598Y-193579042D02*
X201886598Y-193436185D01*
X201886598Y-193436185D02*
X201958026Y-193293328D01*
X201958026Y-193293328D02*
X202100884Y-193221900D01*
X202100884Y-193221900D02*
X202458026Y-193221900D01*
X202458026Y-193221900D02*
X202600884Y-193150471D01*
X203100884Y-192793328D02*
X203672312Y-192793328D01*
X203315169Y-192293328D02*
X203315169Y-193579042D01*
X203315169Y-193579042D02*
X203386598Y-193721900D01*
X203386598Y-193721900D02*
X203529455Y-193793328D01*
X203529455Y-193793328D02*
X203672312Y-193793328D01*
X204743741Y-193721900D02*
X204600884Y-193793328D01*
X204600884Y-193793328D02*
X204315170Y-193793328D01*
X204315170Y-193793328D02*
X204172312Y-193721900D01*
X204172312Y-193721900D02*
X204100884Y-193579042D01*
X204100884Y-193579042D02*
X204100884Y-193007614D01*
X204100884Y-193007614D02*
X204172312Y-192864757D01*
X204172312Y-192864757D02*
X204315170Y-192793328D01*
X204315170Y-192793328D02*
X204600884Y-192793328D01*
X204600884Y-192793328D02*
X204743741Y-192864757D01*
X204743741Y-192864757D02*
X204815170Y-193007614D01*
X204815170Y-193007614D02*
X204815170Y-193150471D01*
X204815170Y-193150471D02*
X204100884Y-193293328D01*
X205458026Y-193650471D02*
X205529455Y-193721900D01*
X205529455Y-193721900D02*
X205458026Y-193793328D01*
X205458026Y-193793328D02*
X205386598Y-193721900D01*
X205386598Y-193721900D02*
X205458026Y-193650471D01*
X205458026Y-193650471D02*
X205458026Y-193793328D01*
X205458026Y-192864757D02*
X205529455Y-192936185D01*
X205529455Y-192936185D02*
X205458026Y-193007614D01*
X205458026Y-193007614D02*
X205386598Y-192936185D01*
X205386598Y-192936185D02*
X205458026Y-192864757D01*
X205458026Y-192864757D02*
X205458026Y-193007614D01*
D10*
D11*
X177002200Y-194507200D02*
X285002200Y-194507200D01*
D10*
D11*
X178458026Y-196593328D02*
X178458026Y-195093328D01*
X179315169Y-196593328D02*
X178672312Y-195736185D01*
X179315169Y-195093328D02*
X178458026Y-195950471D01*
X179958026Y-196593328D02*
X179958026Y-195593328D01*
X179958026Y-195093328D02*
X179886598Y-195164757D01*
X179886598Y-195164757D02*
X179958026Y-195236185D01*
X179958026Y-195236185D02*
X180029455Y-195164757D01*
X180029455Y-195164757D02*
X179958026Y-195093328D01*
X179958026Y-195093328D02*
X179958026Y-195236185D01*
X181529455Y-196450471D02*
X181458027Y-196521900D01*
X181458027Y-196521900D02*
X181243741Y-196593328D01*
X181243741Y-196593328D02*
X181100884Y-196593328D01*
X181100884Y-196593328D02*
X180886598Y-196521900D01*
X180886598Y-196521900D02*
X180743741Y-196379042D01*
X180743741Y-196379042D02*
X180672312Y-196236185D01*
X180672312Y-196236185D02*
X180600884Y-195950471D01*
X180600884Y-195950471D02*
X180600884Y-195736185D01*
X180600884Y-195736185D02*
X180672312Y-195450471D01*
X180672312Y-195450471D02*
X180743741Y-195307614D01*
X180743741Y-195307614D02*
X180886598Y-195164757D01*
X180886598Y-195164757D02*
X181100884Y-195093328D01*
X181100884Y-195093328D02*
X181243741Y-195093328D01*
X181243741Y-195093328D02*
X181458027Y-195164757D01*
X181458027Y-195164757D02*
X181529455Y-195236185D01*
X182815170Y-196593328D02*
X182815170Y-195807614D01*
X182815170Y-195807614D02*
X182743741Y-195664757D01*
X182743741Y-195664757D02*
X182600884Y-195593328D01*
X182600884Y-195593328D02*
X182315170Y-195593328D01*
X182315170Y-195593328D02*
X182172312Y-195664757D01*
X182815170Y-196521900D02*
X182672312Y-196593328D01*
X182672312Y-196593328D02*
X182315170Y-196593328D01*
X182315170Y-196593328D02*
X182172312Y-196521900D01*
X182172312Y-196521900D02*
X182100884Y-196379042D01*
X182100884Y-196379042D02*
X182100884Y-196236185D01*
X182100884Y-196236185D02*
X182172312Y-196093328D01*
X182172312Y-196093328D02*
X182315170Y-196021900D01*
X182315170Y-196021900D02*
X182672312Y-196021900D01*
X182672312Y-196021900D02*
X182815170Y-195950471D01*
X184172313Y-196593328D02*
X184172313Y-195093328D01*
X184172313Y-196521900D02*
X184029455Y-196593328D01*
X184029455Y-196593328D02*
X183743741Y-196593328D01*
X183743741Y-196593328D02*
X183600884Y-196521900D01*
X183600884Y-196521900D02*
X183529455Y-196450471D01*
X183529455Y-196450471D02*
X183458027Y-196307614D01*
X183458027Y-196307614D02*
X183458027Y-195879042D01*
X183458027Y-195879042D02*
X183529455Y-195736185D01*
X183529455Y-195736185D02*
X183600884Y-195664757D01*
X183600884Y-195664757D02*
X183743741Y-195593328D01*
X183743741Y-195593328D02*
X184029455Y-195593328D01*
X184029455Y-195593328D02*
X184172313Y-195664757D01*
X186029455Y-195807614D02*
X186529455Y-195807614D01*
X186743741Y-196593328D02*
X186029455Y-196593328D01*
X186029455Y-196593328D02*
X186029455Y-195093328D01*
X186029455Y-195093328D02*
X186743741Y-195093328D01*
X187386598Y-196450471D02*
X187458027Y-196521900D01*
X187458027Y-196521900D02*
X187386598Y-196593328D01*
X187386598Y-196593328D02*
X187315170Y-196521900D01*
X187315170Y-196521900D02*
X187386598Y-196450471D01*
X187386598Y-196450471D02*
X187386598Y-196593328D01*
X188100884Y-196593328D02*
X188100884Y-195093328D01*
X188100884Y-195093328D02*
X188458027Y-195093328D01*
X188458027Y-195093328D02*
X188672313Y-195164757D01*
X188672313Y-195164757D02*
X188815170Y-195307614D01*
X188815170Y-195307614D02*
X188886599Y-195450471D01*
X188886599Y-195450471D02*
X188958027Y-195736185D01*
X188958027Y-195736185D02*
X188958027Y-195950471D01*
X188958027Y-195950471D02*
X188886599Y-196236185D01*
X188886599Y-196236185D02*
X188815170Y-196379042D01*
X188815170Y-196379042D02*
X188672313Y-196521900D01*
X188672313Y-196521900D02*
X188458027Y-196593328D01*
X188458027Y-196593328D02*
X188100884Y-196593328D01*
X189600884Y-196450471D02*
X189672313Y-196521900D01*
X189672313Y-196521900D02*
X189600884Y-196593328D01*
X189600884Y-196593328D02*
X189529456Y-196521900D01*
X189529456Y-196521900D02*
X189600884Y-196450471D01*
X189600884Y-196450471D02*
X189600884Y-196593328D01*
X190243742Y-196164757D02*
X190958028Y-196164757D01*
X190100885Y-196593328D02*
X190600885Y-195093328D01*
X190600885Y-195093328D02*
X191100885Y-196593328D01*
X191600884Y-196450471D02*
X191672313Y-196521900D01*
X191672313Y-196521900D02*
X191600884Y-196593328D01*
X191600884Y-196593328D02*
X191529456Y-196521900D01*
X191529456Y-196521900D02*
X191600884Y-196450471D01*
X191600884Y-196450471D02*
X191600884Y-196593328D01*
X193529456Y-196593328D02*
X193815170Y-196593328D01*
X193815170Y-196593328D02*
X193958027Y-196521900D01*
X193958027Y-196521900D02*
X194029456Y-196450471D01*
X194029456Y-196450471D02*
X194172313Y-196236185D01*
X194172313Y-196236185D02*
X194243742Y-195950471D01*
X194243742Y-195950471D02*
X194243742Y-195379042D01*
X194243742Y-195379042D02*
X194172313Y-195236185D01*
X194172313Y-195236185D02*
X194100885Y-195164757D01*
X194100885Y-195164757D02*
X193958027Y-195093328D01*
X193958027Y-195093328D02*
X193672313Y-195093328D01*
X193672313Y-195093328D02*
X193529456Y-195164757D01*
X193529456Y-195164757D02*
X193458027Y-195236185D01*
X193458027Y-195236185D02*
X193386599Y-195379042D01*
X193386599Y-195379042D02*
X193386599Y-195736185D01*
X193386599Y-195736185D02*
X193458027Y-195879042D01*
X193458027Y-195879042D02*
X193529456Y-195950471D01*
X193529456Y-195950471D02*
X193672313Y-196021900D01*
X193672313Y-196021900D02*
X193958027Y-196021900D01*
X193958027Y-196021900D02*
X194100885Y-195950471D01*
X194100885Y-195950471D02*
X194172313Y-195879042D01*
X194172313Y-195879042D02*
X194243742Y-195736185D01*
X194886598Y-196450471D02*
X194958027Y-196521900D01*
X194958027Y-196521900D02*
X194886598Y-196593328D01*
X194886598Y-196593328D02*
X194815170Y-196521900D01*
X194815170Y-196521900D02*
X194886598Y-196450471D01*
X194886598Y-196450471D02*
X194886598Y-196593328D01*
X195886599Y-195093328D02*
X196029456Y-195093328D01*
X196029456Y-195093328D02*
X196172313Y-195164757D01*
X196172313Y-195164757D02*
X196243742Y-195236185D01*
X196243742Y-195236185D02*
X196315170Y-195379042D01*
X196315170Y-195379042D02*
X196386599Y-195664757D01*
X196386599Y-195664757D02*
X196386599Y-196021900D01*
X196386599Y-196021900D02*
X196315170Y-196307614D01*
X196315170Y-196307614D02*
X196243742Y-196450471D01*
X196243742Y-196450471D02*
X196172313Y-196521900D01*
X196172313Y-196521900D02*
X196029456Y-196593328D01*
X196029456Y-196593328D02*
X195886599Y-196593328D01*
X195886599Y-196593328D02*
X195743742Y-196521900D01*
X195743742Y-196521900D02*
X195672313Y-196450471D01*
X195672313Y-196450471D02*
X195600884Y-196307614D01*
X195600884Y-196307614D02*
X195529456Y-196021900D01*
X195529456Y-196021900D02*
X195529456Y-195664757D01*
X195529456Y-195664757D02*
X195600884Y-195379042D01*
X195600884Y-195379042D02*
X195672313Y-195236185D01*
X195672313Y-195236185D02*
X195743742Y-195164757D01*
X195743742Y-195164757D02*
X195886599Y-195093328D01*
X197029455Y-196450471D02*
X197100884Y-196521900D01*
X197100884Y-196521900D02*
X197029455Y-196593328D01*
X197029455Y-196593328D02*
X196958027Y-196521900D01*
X196958027Y-196521900D02*
X197029455Y-196450471D01*
X197029455Y-196450471D02*
X197029455Y-196593328D01*
X198529456Y-196593328D02*
X197672313Y-196593328D01*
X198100884Y-196593328D02*
X198100884Y-195093328D01*
X198100884Y-195093328D02*
X197958027Y-195307614D01*
X197958027Y-195307614D02*
X197815170Y-195450471D01*
X197815170Y-195450471D02*
X197672313Y-195521900D01*
D10*
D11*
X177002200Y-191507200D02*
X285002200Y-191507200D01*
D10*
D12*
X264413853Y-193785528D02*
X263913853Y-193071242D01*
X263556710Y-193785528D02*
X263556710Y-192285528D01*
X263556710Y-192285528D02*
X264128139Y-192285528D01*
X264128139Y-192285528D02*
X264270996Y-192356957D01*
X264270996Y-192356957D02*
X264342425Y-192428385D01*
X264342425Y-192428385D02*
X264413853Y-192571242D01*
X264413853Y-192571242D02*
X264413853Y-192785528D01*
X264413853Y-192785528D02*
X264342425Y-192928385D01*
X264342425Y-192928385D02*
X264270996Y-192999814D01*
X264270996Y-192999814D02*
X264128139Y-193071242D01*
X264128139Y-193071242D02*
X263556710Y-193071242D01*
X265628139Y-193714100D02*
X265485282Y-193785528D01*
X265485282Y-193785528D02*
X265199568Y-193785528D01*
X265199568Y-193785528D02*
X265056710Y-193714100D01*
X265056710Y-193714100D02*
X264985282Y-193571242D01*
X264985282Y-193571242D02*
X264985282Y-192999814D01*
X264985282Y-192999814D02*
X265056710Y-192856957D01*
X265056710Y-192856957D02*
X265199568Y-192785528D01*
X265199568Y-192785528D02*
X265485282Y-192785528D01*
X265485282Y-192785528D02*
X265628139Y-192856957D01*
X265628139Y-192856957D02*
X265699568Y-192999814D01*
X265699568Y-192999814D02*
X265699568Y-193142671D01*
X265699568Y-193142671D02*
X264985282Y-193285528D01*
X266199567Y-192785528D02*
X266556710Y-193785528D01*
X266556710Y-193785528D02*
X266913853Y-192785528D01*
X267485281Y-193642671D02*
X267556710Y-193714100D01*
X267556710Y-193714100D02*
X267485281Y-193785528D01*
X267485281Y-193785528D02*
X267413853Y-193714100D01*
X267413853Y-193714100D02*
X267485281Y-193642671D01*
X267485281Y-193642671D02*
X267485281Y-193785528D01*
X267485281Y-192856957D02*
X267556710Y-192928385D01*
X267556710Y-192928385D02*
X267485281Y-192999814D01*
X267485281Y-192999814D02*
X267413853Y-192928385D01*
X267413853Y-192928385D02*
X267485281Y-192856957D01*
X267485281Y-192856957D02*
X267485281Y-192999814D01*
D10*
D11*
X178386598Y-193721900D02*
X178600884Y-193793328D01*
X178600884Y-193793328D02*
X178958026Y-193793328D01*
X178958026Y-193793328D02*
X179100884Y-193721900D01*
X179100884Y-193721900D02*
X179172312Y-193650471D01*
X179172312Y-193650471D02*
X179243741Y-193507614D01*
X179243741Y-193507614D02*
X179243741Y-193364757D01*
X179243741Y-193364757D02*
X179172312Y-193221900D01*
X179172312Y-193221900D02*
X179100884Y-193150471D01*
X179100884Y-193150471D02*
X178958026Y-193079042D01*
X178958026Y-193079042D02*
X178672312Y-193007614D01*
X178672312Y-193007614D02*
X178529455Y-192936185D01*
X178529455Y-192936185D02*
X178458026Y-192864757D01*
X178458026Y-192864757D02*
X178386598Y-192721900D01*
X178386598Y-192721900D02*
X178386598Y-192579042D01*
X178386598Y-192579042D02*
X178458026Y-192436185D01*
X178458026Y-192436185D02*
X178529455Y-192364757D01*
X178529455Y-192364757D02*
X178672312Y-192293328D01*
X178672312Y-192293328D02*
X179029455Y-192293328D01*
X179029455Y-192293328D02*
X179243741Y-192364757D01*
X179886597Y-193793328D02*
X179886597Y-192793328D01*
X179886597Y-192293328D02*
X179815169Y-192364757D01*
X179815169Y-192364757D02*
X179886597Y-192436185D01*
X179886597Y-192436185D02*
X179958026Y-192364757D01*
X179958026Y-192364757D02*
X179886597Y-192293328D01*
X179886597Y-192293328D02*
X179886597Y-192436185D01*
X180458026Y-192793328D02*
X181243741Y-192793328D01*
X181243741Y-192793328D02*
X180458026Y-193793328D01*
X180458026Y-193793328D02*
X181243741Y-193793328D01*
X182386598Y-193721900D02*
X182243741Y-193793328D01*
X182243741Y-193793328D02*
X181958027Y-193793328D01*
X181958027Y-193793328D02*
X181815169Y-193721900D01*
X181815169Y-193721900D02*
X181743741Y-193579042D01*
X181743741Y-193579042D02*
X181743741Y-193007614D01*
X181743741Y-193007614D02*
X181815169Y-192864757D01*
X181815169Y-192864757D02*
X181958027Y-192793328D01*
X181958027Y-192793328D02*
X182243741Y-192793328D01*
X182243741Y-192793328D02*
X182386598Y-192864757D01*
X182386598Y-192864757D02*
X182458027Y-193007614D01*
X182458027Y-193007614D02*
X182458027Y-193150471D01*
X182458027Y-193150471D02*
X181743741Y-193293328D01*
X183100883Y-193650471D02*
X183172312Y-193721900D01*
X183172312Y-193721900D02*
X183100883Y-193793328D01*
X183100883Y-193793328D02*
X183029455Y-193721900D01*
X183029455Y-193721900D02*
X183100883Y-193650471D01*
X183100883Y-193650471D02*
X183100883Y-193793328D01*
X183100883Y-192864757D02*
X183172312Y-192936185D01*
X183172312Y-192936185D02*
X183100883Y-193007614D01*
X183100883Y-193007614D02*
X183029455Y-192936185D01*
X183029455Y-192936185D02*
X183100883Y-192864757D01*
X183100883Y-192864757D02*
X183100883Y-193007614D01*
X184886598Y-193364757D02*
X185600884Y-193364757D01*
X184743741Y-193793328D02*
X185243741Y-192293328D01*
X185243741Y-192293328D02*
X185743741Y-193793328D01*
X186886598Y-192793328D02*
X186886598Y-193793328D01*
X186529455Y-192221900D02*
X186172312Y-193293328D01*
X186172312Y-193293328D02*
X187100883Y-193293328D01*
D10*
D11*
X263458026Y-196593328D02*
X263458026Y-195093328D01*
X264815170Y-196593328D02*
X264815170Y-195093328D01*
X264815170Y-196521900D02*
X264672312Y-196593328D01*
X264672312Y-196593328D02*
X264386598Y-196593328D01*
X264386598Y-196593328D02*
X264243741Y-196521900D01*
X264243741Y-196521900D02*
X264172312Y-196450471D01*
X264172312Y-196450471D02*
X264100884Y-196307614D01*
X264100884Y-196307614D02*
X264100884Y-195879042D01*
X264100884Y-195879042D02*
X264172312Y-195736185D01*
X264172312Y-195736185D02*
X264243741Y-195664757D01*
X264243741Y-195664757D02*
X264386598Y-195593328D01*
X264386598Y-195593328D02*
X264672312Y-195593328D01*
X264672312Y-195593328D02*
X264815170Y-195664757D01*
X265529455Y-196450471D02*
X265600884Y-196521900D01*
X265600884Y-196521900D02*
X265529455Y-196593328D01*
X265529455Y-196593328D02*
X265458027Y-196521900D01*
X265458027Y-196521900D02*
X265529455Y-196450471D01*
X265529455Y-196450471D02*
X265529455Y-196593328D01*
X265529455Y-195664757D02*
X265600884Y-195736185D01*
X265600884Y-195736185D02*
X265529455Y-195807614D01*
X265529455Y-195807614D02*
X265458027Y-195736185D01*
X265458027Y-195736185D02*
X265529455Y-195664757D01*
X265529455Y-195664757D02*
X265529455Y-195807614D01*
X268172313Y-196593328D02*
X267315170Y-196593328D01*
X267743741Y-196593328D02*
X267743741Y-195093328D01*
X267743741Y-195093328D02*
X267600884Y-195307614D01*
X267600884Y-195307614D02*
X267458027Y-195450471D01*
X267458027Y-195450471D02*
X267315170Y-195521900D01*
X269886598Y-195021900D02*
X268600884Y-196950471D01*
X271172313Y-196593328D02*
X270315170Y-196593328D01*
X270743741Y-196593328D02*
X270743741Y-195093328D01*
X270743741Y-195093328D02*
X270600884Y-195307614D01*
X270600884Y-195307614D02*
X270458027Y-195450471D01*
X270458027Y-195450471D02*
X270315170Y-195521900D01*
X272600884Y-196593328D02*
X271743741Y-196593328D01*
X272172312Y-196593328D02*
X272172312Y-195093328D01*
X272172312Y-195093328D02*
X272029455Y-195307614D01*
X272029455Y-195307614D02*
X271886598Y-195450471D01*
X271886598Y-195450471D02*
X271743741Y-195521900D01*
D10*
D11*
X177002200Y-187507200D02*
X285002200Y-187507200D01*
D10*
D13*
X178693928Y-188211638D02*
X179836785Y-188211638D01*
X179015357Y-190211638D02*
X179265357Y-188211638D01*
X180253452Y-190211638D02*
X180420119Y-188878304D01*
X180503452Y-188211638D02*
X180396309Y-188306876D01*
X180396309Y-188306876D02*
X180479643Y-188402114D01*
X180479643Y-188402114D02*
X180586786Y-188306876D01*
X180586786Y-188306876D02*
X180503452Y-188211638D01*
X180503452Y-188211638D02*
X180479643Y-188402114D01*
X181086786Y-188878304D02*
X181848690Y-188878304D01*
X181455833Y-188211638D02*
X181241548Y-189925923D01*
X181241548Y-189925923D02*
X181312976Y-190116400D01*
X181312976Y-190116400D02*
X181491548Y-190211638D01*
X181491548Y-190211638D02*
X181682024Y-190211638D01*
X182634405Y-190211638D02*
X182455833Y-190116400D01*
X182455833Y-190116400D02*
X182384405Y-189925923D01*
X182384405Y-189925923D02*
X182598690Y-188211638D01*
X184170119Y-190116400D02*
X183967738Y-190211638D01*
X183967738Y-190211638D02*
X183586785Y-190211638D01*
X183586785Y-190211638D02*
X183408214Y-190116400D01*
X183408214Y-190116400D02*
X183336785Y-189925923D01*
X183336785Y-189925923D02*
X183432024Y-189164019D01*
X183432024Y-189164019D02*
X183551071Y-188973542D01*
X183551071Y-188973542D02*
X183753452Y-188878304D01*
X183753452Y-188878304D02*
X184134404Y-188878304D01*
X184134404Y-188878304D02*
X184312976Y-188973542D01*
X184312976Y-188973542D02*
X184384404Y-189164019D01*
X184384404Y-189164019D02*
X184360595Y-189354495D01*
X184360595Y-189354495D02*
X183384404Y-189544971D01*
X185134405Y-190021161D02*
X185217738Y-190116400D01*
X185217738Y-190116400D02*
X185110595Y-190211638D01*
X185110595Y-190211638D02*
X185027262Y-190116400D01*
X185027262Y-190116400D02*
X185134405Y-190021161D01*
X185134405Y-190021161D02*
X185110595Y-190211638D01*
X185265357Y-188973542D02*
X185348690Y-189068780D01*
X185348690Y-189068780D02*
X185241548Y-189164019D01*
X185241548Y-189164019D02*
X185158214Y-189068780D01*
X185158214Y-189068780D02*
X185265357Y-188973542D01*
X185265357Y-188973542D02*
X185241548Y-189164019D01*
D10*
D11*
X178958026Y-185607614D02*
X178458026Y-185607614D01*
X178458026Y-186393328D02*
X178458026Y-184893328D01*
X178458026Y-184893328D02*
X179172312Y-184893328D01*
X179743740Y-186393328D02*
X179743740Y-185393328D01*
X179743740Y-184893328D02*
X179672312Y-184964757D01*
X179672312Y-184964757D02*
X179743740Y-185036185D01*
X179743740Y-185036185D02*
X179815169Y-184964757D01*
X179815169Y-184964757D02*
X179743740Y-184893328D01*
X179743740Y-184893328D02*
X179743740Y-185036185D01*
X180672312Y-186393328D02*
X180529455Y-186321900D01*
X180529455Y-186321900D02*
X180458026Y-186179042D01*
X180458026Y-186179042D02*
X180458026Y-184893328D01*
X181815169Y-186321900D02*
X181672312Y-186393328D01*
X181672312Y-186393328D02*
X181386598Y-186393328D01*
X181386598Y-186393328D02*
X181243740Y-186321900D01*
X181243740Y-186321900D02*
X181172312Y-186179042D01*
X181172312Y-186179042D02*
X181172312Y-185607614D01*
X181172312Y-185607614D02*
X181243740Y-185464757D01*
X181243740Y-185464757D02*
X181386598Y-185393328D01*
X181386598Y-185393328D02*
X181672312Y-185393328D01*
X181672312Y-185393328D02*
X181815169Y-185464757D01*
X181815169Y-185464757D02*
X181886598Y-185607614D01*
X181886598Y-185607614D02*
X181886598Y-185750471D01*
X181886598Y-185750471D02*
X181172312Y-185893328D01*
X182529454Y-186250471D02*
X182600883Y-186321900D01*
X182600883Y-186321900D02*
X182529454Y-186393328D01*
X182529454Y-186393328D02*
X182458026Y-186321900D01*
X182458026Y-186321900D02*
X182529454Y-186250471D01*
X182529454Y-186250471D02*
X182529454Y-186393328D01*
X182529454Y-185464757D02*
X182600883Y-185536185D01*
X182600883Y-185536185D02*
X182529454Y-185607614D01*
X182529454Y-185607614D02*
X182458026Y-185536185D01*
X182458026Y-185536185D02*
X182529454Y-185464757D01*
X182529454Y-185464757D02*
X182529454Y-185607614D01*
X184386597Y-186393328D02*
X184386597Y-184893328D01*
X185243740Y-186393328D02*
X184600883Y-185536185D01*
X185243740Y-184893328D02*
X184386597Y-185750471D01*
X185886597Y-186393328D02*
X185886597Y-184893328D01*
X187458026Y-186250471D02*
X187386598Y-186321900D01*
X187386598Y-186321900D02*
X187172312Y-186393328D01*
X187172312Y-186393328D02*
X187029455Y-186393328D01*
X187029455Y-186393328D02*
X186815169Y-186321900D01*
X186815169Y-186321900D02*
X186672312Y-186179042D01*
X186672312Y-186179042D02*
X186600883Y-186036185D01*
X186600883Y-186036185D02*
X186529455Y-185750471D01*
X186529455Y-185750471D02*
X186529455Y-185536185D01*
X186529455Y-185536185D02*
X186600883Y-185250471D01*
X186600883Y-185250471D02*
X186672312Y-185107614D01*
X186672312Y-185107614D02*
X186815169Y-184964757D01*
X186815169Y-184964757D02*
X187029455Y-184893328D01*
X187029455Y-184893328D02*
X187172312Y-184893328D01*
X187172312Y-184893328D02*
X187386598Y-184964757D01*
X187386598Y-184964757D02*
X187458026Y-185036185D01*
X188029455Y-185964757D02*
X188743741Y-185964757D01*
X187886598Y-186393328D02*
X188386598Y-184893328D01*
X188386598Y-184893328D02*
X188886598Y-186393328D01*
X189386597Y-186393328D02*
X189386597Y-184893328D01*
X189386597Y-184893328D02*
X189743740Y-184893328D01*
X189743740Y-184893328D02*
X189958026Y-184964757D01*
X189958026Y-184964757D02*
X190100883Y-185107614D01*
X190100883Y-185107614D02*
X190172312Y-185250471D01*
X190172312Y-185250471D02*
X190243740Y-185536185D01*
X190243740Y-185536185D02*
X190243740Y-185750471D01*
X190243740Y-185750471D02*
X190172312Y-186036185D01*
X190172312Y-186036185D02*
X190100883Y-186179042D01*
X190100883Y-186179042D02*
X189958026Y-186321900D01*
X189958026Y-186321900D02*
X189743740Y-186393328D01*
X189743740Y-186393328D02*
X189386597Y-186393328D01*
X192029454Y-186393328D02*
X192029454Y-184893328D01*
X192029454Y-184893328D02*
X192600883Y-184893328D01*
X192600883Y-184893328D02*
X192743740Y-184964757D01*
X192743740Y-184964757D02*
X192815169Y-185036185D01*
X192815169Y-185036185D02*
X192886597Y-185179042D01*
X192886597Y-185179042D02*
X192886597Y-185393328D01*
X192886597Y-185393328D02*
X192815169Y-185536185D01*
X192815169Y-185536185D02*
X192743740Y-185607614D01*
X192743740Y-185607614D02*
X192600883Y-185679042D01*
X192600883Y-185679042D02*
X192029454Y-185679042D01*
X194386597Y-186393328D02*
X193886597Y-185679042D01*
X193529454Y-186393328D02*
X193529454Y-184893328D01*
X193529454Y-184893328D02*
X194100883Y-184893328D01*
X194100883Y-184893328D02*
X194243740Y-184964757D01*
X194243740Y-184964757D02*
X194315169Y-185036185D01*
X194315169Y-185036185D02*
X194386597Y-185179042D01*
X194386597Y-185179042D02*
X194386597Y-185393328D01*
X194386597Y-185393328D02*
X194315169Y-185536185D01*
X194315169Y-185536185D02*
X194243740Y-185607614D01*
X194243740Y-185607614D02*
X194100883Y-185679042D01*
X194100883Y-185679042D02*
X193529454Y-185679042D01*
X195315169Y-184893328D02*
X195600883Y-184893328D01*
X195600883Y-184893328D02*
X195743740Y-184964757D01*
X195743740Y-184964757D02*
X195886597Y-185107614D01*
X195886597Y-185107614D02*
X195958026Y-185393328D01*
X195958026Y-185393328D02*
X195958026Y-185893328D01*
X195958026Y-185893328D02*
X195886597Y-186179042D01*
X195886597Y-186179042D02*
X195743740Y-186321900D01*
X195743740Y-186321900D02*
X195600883Y-186393328D01*
X195600883Y-186393328D02*
X195315169Y-186393328D01*
X195315169Y-186393328D02*
X195172312Y-186321900D01*
X195172312Y-186321900D02*
X195029454Y-186179042D01*
X195029454Y-186179042D02*
X194958026Y-185893328D01*
X194958026Y-185893328D02*
X194958026Y-185393328D01*
X194958026Y-185393328D02*
X195029454Y-185107614D01*
X195029454Y-185107614D02*
X195172312Y-184964757D01*
X195172312Y-184964757D02*
X195315169Y-184893328D01*
X197029455Y-184893328D02*
X197029455Y-185964757D01*
X197029455Y-185964757D02*
X196958026Y-186179042D01*
X196958026Y-186179042D02*
X196815169Y-186321900D01*
X196815169Y-186321900D02*
X196600883Y-186393328D01*
X196600883Y-186393328D02*
X196458026Y-186393328D01*
X197743740Y-185607614D02*
X198243740Y-185607614D01*
X198458026Y-186393328D02*
X197743740Y-186393328D01*
X197743740Y-186393328D02*
X197743740Y-184893328D01*
X197743740Y-184893328D02*
X198458026Y-184893328D01*
X199958026Y-186250471D02*
X199886598Y-186321900D01*
X199886598Y-186321900D02*
X199672312Y-186393328D01*
X199672312Y-186393328D02*
X199529455Y-186393328D01*
X199529455Y-186393328D02*
X199315169Y-186321900D01*
X199315169Y-186321900D02*
X199172312Y-186179042D01*
X199172312Y-186179042D02*
X199100883Y-186036185D01*
X199100883Y-186036185D02*
X199029455Y-185750471D01*
X199029455Y-185750471D02*
X199029455Y-185536185D01*
X199029455Y-185536185D02*
X199100883Y-185250471D01*
X199100883Y-185250471D02*
X199172312Y-185107614D01*
X199172312Y-185107614D02*
X199315169Y-184964757D01*
X199315169Y-184964757D02*
X199529455Y-184893328D01*
X199529455Y-184893328D02*
X199672312Y-184893328D01*
X199672312Y-184893328D02*
X199886598Y-184964757D01*
X199886598Y-184964757D02*
X199958026Y-185036185D01*
X200386598Y-184893328D02*
X201243741Y-184893328D01*
X200815169Y-186393328D02*
X200815169Y-184893328D01*
X201743740Y-186250471D02*
X201815169Y-186321900D01*
X201815169Y-186321900D02*
X201743740Y-186393328D01*
X201743740Y-186393328D02*
X201672312Y-186321900D01*
X201672312Y-186321900D02*
X201743740Y-186250471D01*
X201743740Y-186250471D02*
X201743740Y-186393328D01*
X202458026Y-186393328D02*
X202458026Y-184893328D01*
X202600884Y-185821900D02*
X203029455Y-186393328D01*
X203029455Y-185393328D02*
X202458026Y-185964757D01*
X203672312Y-186393328D02*
X203672312Y-185393328D01*
X203672312Y-184893328D02*
X203600884Y-184964757D01*
X203600884Y-184964757D02*
X203672312Y-185036185D01*
X203672312Y-185036185D02*
X203743741Y-184964757D01*
X203743741Y-184964757D02*
X203672312Y-184893328D01*
X203672312Y-184893328D02*
X203672312Y-185036185D01*
X205029456Y-186321900D02*
X204886598Y-186393328D01*
X204886598Y-186393328D02*
X204600884Y-186393328D01*
X204600884Y-186393328D02*
X204458027Y-186321900D01*
X204458027Y-186321900D02*
X204386598Y-186250471D01*
X204386598Y-186250471D02*
X204315170Y-186107614D01*
X204315170Y-186107614D02*
X204315170Y-185679042D01*
X204315170Y-185679042D02*
X204386598Y-185536185D01*
X204386598Y-185536185D02*
X204458027Y-185464757D01*
X204458027Y-185464757D02*
X204600884Y-185393328D01*
X204600884Y-185393328D02*
X204886598Y-185393328D01*
X204886598Y-185393328D02*
X205029456Y-185464757D01*
X206315170Y-186393328D02*
X206315170Y-185607614D01*
X206315170Y-185607614D02*
X206243741Y-185464757D01*
X206243741Y-185464757D02*
X206100884Y-185393328D01*
X206100884Y-185393328D02*
X205815170Y-185393328D01*
X205815170Y-185393328D02*
X205672312Y-185464757D01*
X206315170Y-186321900D02*
X206172312Y-186393328D01*
X206172312Y-186393328D02*
X205815170Y-186393328D01*
X205815170Y-186393328D02*
X205672312Y-186321900D01*
X205672312Y-186321900D02*
X205600884Y-186179042D01*
X205600884Y-186179042D02*
X205600884Y-186036185D01*
X205600884Y-186036185D02*
X205672312Y-185893328D01*
X205672312Y-185893328D02*
X205815170Y-185821900D01*
X205815170Y-185821900D02*
X206172312Y-185821900D01*
X206172312Y-185821900D02*
X206315170Y-185750471D01*
X207672313Y-186393328D02*
X207672313Y-184893328D01*
X207672313Y-186321900D02*
X207529455Y-186393328D01*
X207529455Y-186393328D02*
X207243741Y-186393328D01*
X207243741Y-186393328D02*
X207100884Y-186321900D01*
X207100884Y-186321900D02*
X207029455Y-186250471D01*
X207029455Y-186250471D02*
X206958027Y-186107614D01*
X206958027Y-186107614D02*
X206958027Y-185679042D01*
X206958027Y-185679042D02*
X207029455Y-185536185D01*
X207029455Y-185536185D02*
X207100884Y-185464757D01*
X207100884Y-185464757D02*
X207243741Y-185393328D01*
X207243741Y-185393328D02*
X207529455Y-185393328D01*
X207529455Y-185393328D02*
X207672313Y-185464757D01*
X208029456Y-186536185D02*
X209172313Y-186536185D01*
X209529455Y-185393328D02*
X209529455Y-186893328D01*
X209529455Y-185464757D02*
X209672313Y-185393328D01*
X209672313Y-185393328D02*
X209958027Y-185393328D01*
X209958027Y-185393328D02*
X210100884Y-185464757D01*
X210100884Y-185464757D02*
X210172313Y-185536185D01*
X210172313Y-185536185D02*
X210243741Y-185679042D01*
X210243741Y-185679042D02*
X210243741Y-186107614D01*
X210243741Y-186107614D02*
X210172313Y-186250471D01*
X210172313Y-186250471D02*
X210100884Y-186321900D01*
X210100884Y-186321900D02*
X209958027Y-186393328D01*
X209958027Y-186393328D02*
X209672313Y-186393328D01*
X209672313Y-186393328D02*
X209529455Y-186321900D01*
X211529456Y-186321900D02*
X211386598Y-186393328D01*
X211386598Y-186393328D02*
X211100884Y-186393328D01*
X211100884Y-186393328D02*
X210958027Y-186321900D01*
X210958027Y-186321900D02*
X210886598Y-186250471D01*
X210886598Y-186250471D02*
X210815170Y-186107614D01*
X210815170Y-186107614D02*
X210815170Y-185679042D01*
X210815170Y-185679042D02*
X210886598Y-185536185D01*
X210886598Y-185536185D02*
X210958027Y-185464757D01*
X210958027Y-185464757D02*
X211100884Y-185393328D01*
X211100884Y-185393328D02*
X211386598Y-185393328D01*
X211386598Y-185393328D02*
X211529456Y-185464757D01*
X212172312Y-186393328D02*
X212172312Y-184893328D01*
X212172312Y-185464757D02*
X212315170Y-185393328D01*
X212315170Y-185393328D02*
X212600884Y-185393328D01*
X212600884Y-185393328D02*
X212743741Y-185464757D01*
X212743741Y-185464757D02*
X212815170Y-185536185D01*
X212815170Y-185536185D02*
X212886598Y-185679042D01*
X212886598Y-185679042D02*
X212886598Y-186107614D01*
X212886598Y-186107614D02*
X212815170Y-186250471D01*
X212815170Y-186250471D02*
X212743741Y-186321900D01*
X212743741Y-186321900D02*
X212600884Y-186393328D01*
X212600884Y-186393328D02*
X212315170Y-186393328D01*
X212315170Y-186393328D02*
X212172312Y-186321900D01*
D10*
D11*
X177002200Y-181507200D02*
X285002200Y-181507200D01*
D10*
D11*
X178386598Y-183621900D02*
X178600884Y-183693328D01*
X178600884Y-183693328D02*
X178958026Y-183693328D01*
X178958026Y-183693328D02*
X179100884Y-183621900D01*
X179100884Y-183621900D02*
X179172312Y-183550471D01*
X179172312Y-183550471D02*
X179243741Y-183407614D01*
X179243741Y-183407614D02*
X179243741Y-183264757D01*
X179243741Y-183264757D02*
X179172312Y-183121900D01*
X179172312Y-183121900D02*
X179100884Y-183050471D01*
X179100884Y-183050471D02*
X178958026Y-182979042D01*
X178958026Y-182979042D02*
X178672312Y-182907614D01*
X178672312Y-182907614D02*
X178529455Y-182836185D01*
X178529455Y-182836185D02*
X178458026Y-182764757D01*
X178458026Y-182764757D02*
X178386598Y-182621900D01*
X178386598Y-182621900D02*
X178386598Y-182479042D01*
X178386598Y-182479042D02*
X178458026Y-182336185D01*
X178458026Y-182336185D02*
X178529455Y-182264757D01*
X178529455Y-182264757D02*
X178672312Y-182193328D01*
X178672312Y-182193328D02*
X179029455Y-182193328D01*
X179029455Y-182193328D02*
X179243741Y-182264757D01*
X179886597Y-183693328D02*
X179886597Y-182193328D01*
X180529455Y-183693328D02*
X180529455Y-182907614D01*
X180529455Y-182907614D02*
X180458026Y-182764757D01*
X180458026Y-182764757D02*
X180315169Y-182693328D01*
X180315169Y-182693328D02*
X180100883Y-182693328D01*
X180100883Y-182693328D02*
X179958026Y-182764757D01*
X179958026Y-182764757D02*
X179886597Y-182836185D01*
X181815169Y-183621900D02*
X181672312Y-183693328D01*
X181672312Y-183693328D02*
X181386598Y-183693328D01*
X181386598Y-183693328D02*
X181243740Y-183621900D01*
X181243740Y-183621900D02*
X181172312Y-183479042D01*
X181172312Y-183479042D02*
X181172312Y-182907614D01*
X181172312Y-182907614D02*
X181243740Y-182764757D01*
X181243740Y-182764757D02*
X181386598Y-182693328D01*
X181386598Y-182693328D02*
X181672312Y-182693328D01*
X181672312Y-182693328D02*
X181815169Y-182764757D01*
X181815169Y-182764757D02*
X181886598Y-182907614D01*
X181886598Y-182907614D02*
X181886598Y-183050471D01*
X181886598Y-183050471D02*
X181172312Y-183193328D01*
X183100883Y-183621900D02*
X182958026Y-183693328D01*
X182958026Y-183693328D02*
X182672312Y-183693328D01*
X182672312Y-183693328D02*
X182529454Y-183621900D01*
X182529454Y-183621900D02*
X182458026Y-183479042D01*
X182458026Y-183479042D02*
X182458026Y-182907614D01*
X182458026Y-182907614D02*
X182529454Y-182764757D01*
X182529454Y-182764757D02*
X182672312Y-182693328D01*
X182672312Y-182693328D02*
X182958026Y-182693328D01*
X182958026Y-182693328D02*
X183100883Y-182764757D01*
X183100883Y-182764757D02*
X183172312Y-182907614D01*
X183172312Y-182907614D02*
X183172312Y-183050471D01*
X183172312Y-183050471D02*
X182458026Y-183193328D01*
X183600883Y-182693328D02*
X184172311Y-182693328D01*
X183815168Y-182193328D02*
X183815168Y-183479042D01*
X183815168Y-183479042D02*
X183886597Y-183621900D01*
X183886597Y-183621900D02*
X184029454Y-183693328D01*
X184029454Y-183693328D02*
X184172311Y-183693328D01*
X184672311Y-183550471D02*
X184743740Y-183621900D01*
X184743740Y-183621900D02*
X184672311Y-183693328D01*
X184672311Y-183693328D02*
X184600883Y-183621900D01*
X184600883Y-183621900D02*
X184672311Y-183550471D01*
X184672311Y-183550471D02*
X184672311Y-183693328D01*
X184672311Y-182764757D02*
X184743740Y-182836185D01*
X184743740Y-182836185D02*
X184672311Y-182907614D01*
X184672311Y-182907614D02*
X184600883Y-182836185D01*
X184600883Y-182836185D02*
X184672311Y-182764757D01*
X184672311Y-182764757D02*
X184672311Y-182907614D01*
D10*
D11*
X197002200Y-191507200D02*
X197002200Y-194507200D01*
D10*
D11*
X261002200Y-191507200D02*
X261002200Y-198007200D01*
D14*
%TO.P,RPi screen1,26,TP_CS*%
%TO.N,TP_CS*%
X80870000Y-102540000D03*
%TO.P,RPi screen1,25,GND*%
%TO.N,CPGND*%
X80870000Y-100000000D03*
%TO.P,RPi screen1,24,LCD_CS*%
%TO.N,LCD_CS*%
X83410000Y-102540000D03*
%TO.P,RPi screen1,23,LCD_SCK*%
%TO.N,SCLK*%
X83410000Y-100000000D03*
%TO.P,RPi screen1,22,RST*%
%TO.N,RST*%
X85950000Y-102540000D03*
%TO.P,RPi screen1,21,TP_SO*%
%TO.N,MISO*%
X85950000Y-100000000D03*
%TO.P,RPi screen1,20*%
%TO.N,unconnected-(RPi screen1-Pad20)*%
X88490000Y-102540000D03*
%TO.P,RPi screen1,19,LCD_SI*%
%TO.N,MOSI*%
X88490000Y-100000000D03*
%TO.P,RPi screen1,18,LCD_RS*%
%TO.N,LCD_RS*%
X91030000Y-102540000D03*
%TO.P,RPi screen1,17*%
%TO.N,unconnected-(RPi screen1-Pad17)*%
X91030000Y-100000000D03*
%TO.P,RPi screen1,16*%
%TO.N,unconnected-(RPi screen1-Pad16)*%
X93570000Y-102540000D03*
%TO.P,RPi screen1,15*%
%TO.N,unconnected-(RPi screen1-Pad15)*%
X93570000Y-100000000D03*
%TO.P,RPi screen1,14,GND*%
%TO.N,CPGND*%
X96110000Y-102540000D03*
%TO.P,RPi screen1,13*%
%TO.N,unconnected-(RPi screen1-Pad13)*%
X96110000Y-100000000D03*
%TO.P,RPi screen1,12*%
%TO.N,unconnected-(RPi screen1-Pad12)*%
X98650000Y-102540000D03*
%TO.P,RPi screen1,11,TP_IRQ*%
%TO.N,TP_Intrerrupt*%
X98650000Y-100000000D03*
%TO.P,RPi screen1,10*%
%TO.N,unconnected-(RPi screen1-Pad10)*%
X101190000Y-102540000D03*
%TO.P,RPi screen1,9*%
%TO.N,unconnected-(RPi screen1-Pad9)*%
X101190000Y-100000000D03*
%TO.P,RPi screen1,8*%
%TO.N,unconnected-(RPi screen1-Pad8)*%
X103730000Y-102540000D03*
%TO.P,RPi screen1,7*%
%TO.N,unconnected-(RPi screen1-Pad7)*%
X103730000Y-100000000D03*
%TO.P,RPi screen1,6,GND*%
%TO.N,CPGND*%
X106270000Y-102540000D03*
%TO.P,RPi screen1,5*%
%TO.N,unconnected-(RPi screen1-Pad5)*%
X106270000Y-100000000D03*
%TO.P,RPi screen1,4,5v*%
%TO.N,+5V*%
X108810000Y-102540000D03*
%TO.P,RPi screen1,3*%
%TO.N,unconnected-(RPi screen1-Pad3)*%
X108810000Y-100000000D03*
%TO.P,RPi screen1,2,5v*%
%TO.N,+5V*%
X111350000Y-102540000D03*
%TO.P,RPi screen1,1,3.3v*%
%TO.N,Net-(JP1-A)*%
X111350000Y-100000000D03*
%TD*%
D15*
%TO.P,D21,1,K*%
%TO.N,Column 3*%
X65000000Y-131125000D03*
%TO.P,D21,2,A*%
%TO.N,Net-(D21-A)*%
X65000000Y-132875000D03*
%TD*%
%TO.P,D31,1,K*%
%TO.N,Column 8*%
X107948658Y-141261715D03*
%TO.P,D31,2,A*%
%TO.N,Net-(D31-A)*%
X107948658Y-143011715D03*
%TD*%
D16*
%TO.P,SW15,1,1*%
%TO.N,Line 3*%
X42134346Y-134723756D03*
X42134346Y-128423756D03*
%TO.P,SW15,2,2*%
%TO.N,Net-(D23-A)*%
X45934346Y-134723756D03*
X45934346Y-128423756D03*
%TD*%
D17*
%TO.P,D1,1,K*%
%TO.N,Column 1*%
X40125000Y-116000000D03*
%TO.P,D1,2,A*%
%TO.N,Net-(D1-A)*%
X41875000Y-116000000D03*
%TD*%
D15*
%TO.P,D18,1,K*%
%TO.N,Column 6*%
X90825000Y-131125000D03*
%TO.P,D18,2,A*%
%TO.N,Net-(D18-A)*%
X90825000Y-132875000D03*
%TD*%
%TO.P,D36,1,K*%
%TO.N,Column 5*%
X82273841Y-150921817D03*
%TO.P,D36,2,A*%
%TO.N,Net-(D36-A)*%
X82273841Y-152671817D03*
%TD*%
%TO.P,D6,1,K*%
%TO.N,Column 2*%
X52500000Y-121000000D03*
%TO.P,D6,2,A*%
%TO.N,Net-(D6-A)*%
X52500000Y-122750000D03*
%TD*%
D18*
%TO.P,H4,1*%
%TO.N,N/C*%
X38025000Y-160000000D03*
%TD*%
D16*
%TO.P,SW42,1,1*%
%TO.N,Line 5*%
X114600000Y-154650000D03*
X114600000Y-148350000D03*
%TO.P,SW42,2,2*%
%TO.N,Net-(D33-A)*%
X118400000Y-154650000D03*
X118400000Y-148350000D03*
%TD*%
D18*
%TO.P,H2,1*%
%TO.N,N/C*%
X119000000Y-46275000D03*
%TD*%
D16*
%TO.P,SW21,1,1*%
%TO.N,Line 3*%
X93509346Y-134723756D03*
X93509346Y-128423756D03*
%TO.P,SW21,2,2*%
%TO.N,Net-(D17-A)*%
X97309346Y-134723756D03*
X97309346Y-128423756D03*
%TD*%
D15*
%TO.P,D26,1,K*%
%TO.N,Column 3*%
X64949751Y-141261715D03*
%TO.P,D26,2,A*%
%TO.N,Net-(D26-A)*%
X64949751Y-143011715D03*
%TD*%
D16*
%TO.P,SW7,1,1*%
%TO.N,Line 2*%
X55111111Y-124800000D03*
X55111111Y-118500000D03*
%TO.P,SW7,2,2*%
%TO.N,Net-(D7-A)*%
X58911111Y-124800000D03*
X58911111Y-118500000D03*
%TD*%
%TO.P,SW16,1,1*%
%TO.N,Line 3*%
X50696846Y-134723756D03*
X50696846Y-128423756D03*
%TO.P,SW16,2,2*%
%TO.N,Net-(D22-A)*%
X54496846Y-134723756D03*
X54496846Y-128423756D03*
%TD*%
%TO.P,SW25,1,1*%
%TO.N,Line 4*%
X50600000Y-144928214D03*
X50600000Y-138628214D03*
%TO.P,SW25,2,2*%
%TO.N,Net-(D25-A)*%
X54400000Y-144928214D03*
X54400000Y-138628214D03*
%TD*%
%TO.P,SW18,1,1*%
%TO.N,Line 3*%
X67821846Y-134723756D03*
X67821846Y-128423756D03*
%TO.P,SW18,2,2*%
%TO.N,Net-(D20-A)*%
X71621846Y-134723756D03*
X71621846Y-128423756D03*
%TD*%
%TO.P,SW28,1,1*%
%TO.N,Line 4*%
X76350000Y-144928214D03*
X76350000Y-138628214D03*
%TO.P,SW28,2,2*%
%TO.N,Net-(D28-A)*%
X80150000Y-144928214D03*
X80150000Y-138628214D03*
%TD*%
D15*
%TO.P,D14,1,K*%
%TO.N,Column 10*%
X120734641Y-121000000D03*
%TO.P,D14,2,A*%
%TO.N,Net-(D14-A)*%
X120734641Y-122750000D03*
%TD*%
D16*
%TO.P,SW31,1,1*%
%TO.N,Line 4*%
X102100000Y-144928214D03*
X102100000Y-138628214D03*
%TO.P,SW31,2,2*%
%TO.N,Net-(D31-A)*%
X105900000Y-144928214D03*
X105900000Y-138628214D03*
%TD*%
%TO.P,SW11,1,1*%
%TO.N,Line 2*%
X89333333Y-124800000D03*
X89333333Y-118500000D03*
%TO.P,SW11,2,2*%
%TO.N,Net-(D11-A)*%
X93133333Y-124800000D03*
X93133333Y-118500000D03*
%TD*%
%TO.P,SW22,1,1*%
%TO.N,Line 3*%
X102071846Y-134723756D03*
X102071846Y-128423756D03*
%TO.P,SW22,2,2*%
%TO.N,Net-(D16-A)*%
X105871846Y-134723756D03*
X105871846Y-128423756D03*
%TD*%
D15*
%TO.P,D28,1,K*%
%TO.N,Column 5*%
X82087532Y-141261715D03*
%TO.P,D28,2,A*%
%TO.N,Net-(D28-A)*%
X82087532Y-143011715D03*
%TD*%
D16*
%TO.P,SW6,1,1*%
%TO.N,Line 2*%
X46555556Y-124800000D03*
X46555556Y-118500000D03*
%TO.P,SW6,2,2*%
%TO.N,Net-(D6-A)*%
X50355556Y-124800000D03*
X50355556Y-118500000D03*
%TD*%
%TO.P,SW26,1,1*%
%TO.N,Line 4*%
X59183333Y-144928214D03*
X59183333Y-138628214D03*
%TO.P,SW26,2,2*%
%TO.N,Net-(D26-A)*%
X62983333Y-144928214D03*
X62983333Y-138628214D03*
%TD*%
D15*
%TO.P,D9,1,K*%
%TO.N,Column 5*%
X78000000Y-121000000D03*
%TO.P,D9,2,A*%
%TO.N,Net-(D9-A)*%
X78000000Y-122750000D03*
%TD*%
D16*
%TO.P,SW23,1,1*%
%TO.N,Line 3*%
X110634346Y-134723756D03*
X110634346Y-128423756D03*
%TO.P,SW23,2,2*%
%TO.N,Net-(D15-A)*%
X114434346Y-134723756D03*
X114434346Y-128423756D03*
%TD*%
%TO.P,SW19,1,1*%
%TO.N,Line 3*%
X76384346Y-134723756D03*
X76384346Y-128423756D03*
%TO.P,SW19,2,2*%
%TO.N,Net-(D19-A)*%
X80184346Y-134723756D03*
X80184346Y-128423756D03*
%TD*%
%TO.P,SW38,1,1*%
%TO.N,Line 5*%
X76600000Y-154650000D03*
X76600000Y-148350000D03*
%TO.P,SW38,2,2*%
%TO.N,Net-(D36-A)*%
X80400000Y-154650000D03*
X80400000Y-148350000D03*
%TD*%
D15*
%TO.P,D19,1,K*%
%TO.N,Column 5*%
X82325000Y-131125000D03*
%TO.P,D19,2,A*%
%TO.N,Net-(D19-A)*%
X82325000Y-132875000D03*
%TD*%
%TO.P,D29,1,K*%
%TO.N,Column 6*%
X90681642Y-141261715D03*
%TO.P,D29,2,A*%
%TO.N,Net-(D29-A)*%
X90681642Y-143011715D03*
%TD*%
%TO.P,D5,1,K*%
%TO.N,Column 1*%
X44000000Y-121000000D03*
%TO.P,D5,2,A*%
%TO.N,Net-(D5-A)*%
X44000000Y-122750000D03*
%TD*%
D17*
%TO.P,D2,1,K*%
%TO.N,Column 2*%
X51500000Y-116000000D03*
%TO.P,D2,2,A*%
%TO.N,Net-(D2-A)*%
X53250000Y-116000000D03*
%TD*%
D16*
%TO.P,SW27,1,1*%
%TO.N,Line 4*%
X67766667Y-144928214D03*
X67766667Y-138628214D03*
%TO.P,SW27,2,2*%
%TO.N,Net-(D27-A)*%
X71566667Y-144928214D03*
X71566667Y-138628214D03*
%TD*%
D15*
%TO.P,D32,1,K*%
%TO.N,Column 10*%
X118802364Y-141261715D03*
%TO.P,D32,2,A*%
%TO.N,Net-(D32-A)*%
X118802364Y-143011715D03*
%TD*%
%TO.P,D16,1,K*%
%TO.N,Column 8*%
X107807058Y-131125000D03*
%TO.P,D16,2,A*%
%TO.N,Net-(D16-A)*%
X107807058Y-132875000D03*
%TD*%
D16*
%TO.P,SW40,1,1*%
%TO.N,Line 5*%
X93600000Y-154650000D03*
X93600000Y-148350000D03*
%TO.P,SW40,2,2*%
%TO.N,Net-(D35-A)*%
X97400000Y-154650000D03*
X97400000Y-148350000D03*
%TD*%
D19*
%TO.P,SW2,1,1*%
%TO.N,Line 1*%
X49350000Y-110100000D03*
X55650000Y-110100000D03*
%TO.P,SW2,2,2*%
%TO.N,Net-(D2-A)*%
X49350000Y-113900000D03*
X55650000Y-113900000D03*
%TD*%
D16*
%TO.P,SW20,1,1*%
%TO.N,Line 3*%
X84946846Y-134723756D03*
X84946846Y-128423756D03*
%TO.P,SW20,2,2*%
%TO.N,Net-(D18-A)*%
X88746846Y-134723756D03*
X88746846Y-128423756D03*
%TD*%
%TO.P,SW14,1,1*%
%TO.N,Line 2*%
X115000000Y-124800000D03*
X115000000Y-118500000D03*
%TO.P,SW14,2,2*%
%TO.N,Net-(D14-A)*%
X118800000Y-124800000D03*
X118800000Y-118500000D03*
%TD*%
D15*
%TO.P,D33,1,K*%
%TO.N,Column 10*%
X120357962Y-151107962D03*
%TO.P,D33,2,A*%
%TO.N,Net-(D33-A)*%
X120357962Y-152857962D03*
%TD*%
D20*
%TO.P,R2,1*%
%TO.N,+5V*%
X50325000Y-51875000D03*
%TO.P,R2,2*%
%TO.N,SDA*%
X50325000Y-53700000D03*
%TD*%
D16*
%TO.P,SW33,1,1*%
%TO.N,Line 4*%
X113100000Y-144928214D03*
X113100000Y-138628214D03*
%TO.P,SW33,2,2*%
%TO.N,Net-(D32-A)*%
X116900000Y-144928214D03*
X116900000Y-138628214D03*
%TD*%
D21*
%TO.P,R16,1*%
%TO.N,+5V*%
X50325000Y-58200000D03*
%TO.P,R16,2*%
%TO.N,SCL*%
X50325000Y-56375000D03*
%TD*%
D15*
%TO.P,D34,1,K*%
%TO.N,Column 9*%
X109341073Y-150952627D03*
%TO.P,D34,2,A*%
%TO.N,Net-(D34-A)*%
X109341073Y-152702627D03*
%TD*%
D19*
%TO.P,SW3,1,1*%
%TO.N,Line 1*%
X60850000Y-110100000D03*
X67150000Y-110100000D03*
%TO.P,SW3,2,2*%
%TO.N,Net-(D3-A)*%
X60850000Y-113900000D03*
X67150000Y-113900000D03*
%TD*%
D16*
%TO.P,SW9,1,1*%
%TO.N,Line 2*%
X72222222Y-124800000D03*
X72222222Y-118500000D03*
%TO.P,SW9,2,2*%
%TO.N,Net-(D9-A)*%
X76022222Y-124800000D03*
X76022222Y-118500000D03*
%TD*%
%TO.P,SW12,1,1*%
%TO.N,Line 2*%
X97888889Y-124800000D03*
X97888889Y-118500000D03*
%TO.P,SW12,2,2*%
%TO.N,Net-(D12-A)*%
X101688889Y-124800000D03*
X101688889Y-118500000D03*
%TD*%
%TO.P,SW24,1,1*%
%TO.N,Line 4*%
X40100000Y-144928214D03*
X40100000Y-138628214D03*
%TO.P,SW24,2,2*%
%TO.N,Net-(D24-A)*%
X43900000Y-144928214D03*
X43900000Y-138628214D03*
%TD*%
D15*
%TO.P,D23,1,K*%
%TO.N,Column 1*%
X47820489Y-131125000D03*
%TO.P,D23,2,A*%
%TO.N,Net-(D23-A)*%
X47820489Y-132875000D03*
%TD*%
%TO.P,D30,1,K*%
%TO.N,Column 7*%
X99337411Y-141261715D03*
%TO.P,D30,2,A*%
%TO.N,Net-(D30-A)*%
X99337411Y-143011715D03*
%TD*%
%TO.P,D8,1,K*%
%TO.N,Column 4*%
X69500000Y-121000000D03*
%TO.P,D8,2,A*%
%TO.N,Net-(D8-A)*%
X69500000Y-122750000D03*
%TD*%
%TO.P,D17,1,K*%
%TO.N,Column 7*%
X99242046Y-131125000D03*
%TO.P,D17,2,A*%
%TO.N,Net-(D17-A)*%
X99242046Y-132875000D03*
%TD*%
D18*
%TO.P,H3,1*%
%TO.N,N/C*%
X119000000Y-160000000D03*
%TD*%
D16*
%TO.P,SW41,1,1*%
%TO.N,Line 5*%
X103600000Y-154650000D03*
X103600000Y-148350000D03*
%TO.P,SW41,2,2*%
%TO.N,Net-(D34-A)*%
X107400000Y-154650000D03*
X107400000Y-148350000D03*
%TD*%
D15*
%TO.P,D7,1,K*%
%TO.N,Column 3*%
X61000000Y-121000000D03*
%TO.P,D7,2,A*%
%TO.N,Net-(D7-A)*%
X61000000Y-122750000D03*
%TD*%
%TO.P,D27,1,K*%
%TO.N,Column 4*%
X73544926Y-141261715D03*
%TO.P,D27,2,A*%
%TO.N,Net-(D27-A)*%
X73544926Y-143011715D03*
%TD*%
%TO.P,D11,1,K*%
%TO.N,Column 7*%
X95000000Y-121000000D03*
%TO.P,D11,2,A*%
%TO.N,Net-(D11-A)*%
X95000000Y-122750000D03*
%TD*%
D16*
%TO.P,SW34,1,1*%
%TO.N,Line 5*%
X50100000Y-154650000D03*
X50100000Y-148350000D03*
%TO.P,SW34,2,2*%
%TO.N,Net-(D38-A)*%
X53900000Y-154650000D03*
X53900000Y-148350000D03*
%TD*%
%TO.P,SW8,1,1*%
%TO.N,Line 2*%
X63666667Y-124800000D03*
X63666667Y-118500000D03*
%TO.P,SW8,2,2*%
%TO.N,Net-(D8-A)*%
X67466667Y-124800000D03*
X67466667Y-118500000D03*
%TD*%
D15*
%TO.P,D37,1,K*%
%TO.N,Column 3*%
X64810754Y-150957025D03*
%TO.P,D37,2,A*%
%TO.N,Net-(D37-A)*%
X64810754Y-152707025D03*
%TD*%
D16*
%TO.P,SW13,1,1*%
%TO.N,Line 2*%
X106444444Y-124800000D03*
X106444444Y-118500000D03*
%TO.P,SW13,2,2*%
%TO.N,Net-(D13-A)*%
X110244444Y-124800000D03*
X110244444Y-118500000D03*
%TD*%
%TO.P,SW35,1,1*%
%TO.N,Line 5*%
X59100000Y-154650000D03*
X59100000Y-148350000D03*
%TO.P,SW35,2,2*%
%TO.N,Net-(D37-A)*%
X62900000Y-154650000D03*
X62900000Y-148350000D03*
%TD*%
D17*
%TO.P,D4,1,K*%
%TO.N,Column 4*%
X74500000Y-115750000D03*
%TO.P,D4,2,A*%
%TO.N,Net-(D4-A)*%
X76250000Y-115750000D03*
%TD*%
D15*
%TO.P,D35,1,K*%
%TO.N,Column 8*%
X99298286Y-150826714D03*
%TO.P,D35,2,A*%
%TO.N,Net-(D35-A)*%
X99298286Y-152576714D03*
%TD*%
%TO.P,D15,1,K*%
%TO.N,Column 9*%
X116500000Y-131125000D03*
%TO.P,D15,2,A*%
%TO.N,Net-(D15-A)*%
X116500000Y-132875000D03*
%TD*%
%TO.P,D39,1,K*%
%TO.N,Column 1*%
X44319794Y-150891805D03*
%TO.P,D39,2,A*%
%TO.N,Net-(D39-A)*%
X44319794Y-152641805D03*
%TD*%
%TO.P,D20,1,K*%
%TO.N,Column 4*%
X73500000Y-131125000D03*
%TO.P,D20,2,A*%
%TO.N,Net-(D20-A)*%
X73500000Y-132875000D03*
%TD*%
%TO.P,D24,1,K*%
%TO.N,Column 1*%
X45853730Y-141261715D03*
%TO.P,D24,2,A*%
%TO.N,Net-(D24-A)*%
X45853730Y-143011715D03*
%TD*%
D17*
%TO.P,D3,1,K*%
%TO.N,Column 3*%
X63125000Y-116000000D03*
%TO.P,D3,2,A*%
%TO.N,Net-(D3-A)*%
X64875000Y-116000000D03*
%TD*%
D16*
%TO.P,SW29,1,1*%
%TO.N,Line 4*%
X84933333Y-144928214D03*
X84933333Y-138628214D03*
%TO.P,SW29,2,2*%
%TO.N,Net-(D29-A)*%
X88733333Y-144928214D03*
X88733333Y-138628214D03*
%TD*%
D19*
%TO.P,SW1,1,1*%
%TO.N,Line 1*%
X37850000Y-110100000D03*
X44150000Y-110100000D03*
%TO.P,SW1,2,2*%
%TO.N,Net-(D1-A)*%
X37850000Y-113900000D03*
X44150000Y-113900000D03*
%TD*%
D15*
%TO.P,D12,1,K*%
%TO.N,Column 8*%
X103648456Y-121000000D03*
%TO.P,D12,2,A*%
%TO.N,Net-(D12-A)*%
X103648456Y-122750000D03*
%TD*%
%TO.P,D10,1,K*%
%TO.N,Column 6*%
X86500000Y-121000000D03*
%TO.P,D10,2,A*%
%TO.N,Net-(D10-A)*%
X86500000Y-122750000D03*
%TD*%
D16*
%TO.P,SW5,1,1*%
%TO.N,Line 2*%
X38000000Y-124800000D03*
X38000000Y-118500000D03*
%TO.P,SW5,2,2*%
%TO.N,Net-(D5-A)*%
X41800000Y-124800000D03*
X41800000Y-118500000D03*
%TD*%
%TO.P,SW32,1,1*%
%TO.N,Line 5*%
X38600000Y-154650000D03*
X38600000Y-148350000D03*
%TO.P,SW32,2,2*%
%TO.N,Net-(D39-A)*%
X42400000Y-154650000D03*
X42400000Y-148350000D03*
%TD*%
%TO.P,SW30,1,1*%
%TO.N,Line 4*%
X93516667Y-144928214D03*
X93516667Y-138628214D03*
%TO.P,SW30,2,2*%
%TO.N,Net-(D30-A)*%
X97316667Y-144928214D03*
X97316667Y-138628214D03*
%TD*%
D19*
%TO.P,SW4,1,1*%
%TO.N,Line 1*%
X72350000Y-110100000D03*
X78650000Y-110100000D03*
%TO.P,SW4,2,2*%
%TO.N,Net-(D4-A)*%
X72350000Y-113900000D03*
X78650000Y-113900000D03*
%TD*%
D15*
%TO.P,D13,1,K*%
%TO.N,Column 9*%
X112170587Y-121000000D03*
%TO.P,D13,2,A*%
%TO.N,Net-(D13-A)*%
X112170587Y-122750000D03*
%TD*%
%TO.P,D25,1,K*%
%TO.N,Column 2*%
X56328047Y-141261715D03*
%TO.P,D25,2,A*%
%TO.N,Net-(D25-A)*%
X56328047Y-143011715D03*
%TD*%
%TO.P,D38,1,K*%
%TO.N,Column 2*%
X55832756Y-150851402D03*
%TO.P,D38,2,A*%
%TO.N,Net-(D38-A)*%
X55832756Y-152601402D03*
%TD*%
%TO.P,D22,1,K*%
%TO.N,Column 2*%
X56450870Y-131125000D03*
%TO.P,D22,2,A*%
%TO.N,Net-(D22-A)*%
X56450870Y-132875000D03*
%TD*%
D16*
%TO.P,SW10,1,1*%
%TO.N,Line 2*%
X80777778Y-124800000D03*
X80777778Y-118500000D03*
%TO.P,SW10,2,2*%
%TO.N,Net-(D10-A)*%
X84577778Y-124800000D03*
X84577778Y-118500000D03*
%TD*%
%TO.P,SW17,1,1*%
%TO.N,Line 3*%
X59259346Y-134723756D03*
X59259346Y-128423756D03*
%TO.P,SW17,2,2*%
%TO.N,Net-(D21-A)*%
X63059346Y-134723756D03*
X63059346Y-128423756D03*
%TD*%
D22*
%TO.P,SW37,*%
%TO.N,*%
X118085000Y-62350000D03*
X118085000Y-55340000D03*
D23*
%TO.P,SW37,1,1*%
%TO.N,Vol Up*%
X120575000Y-61100000D03*
%TO.P,SW37,2,2*%
%TO.N,CPGND*%
X120575000Y-56600000D03*
%TD*%
D22*
%TO.P,SW39,*%
%TO.N,*%
X118085000Y-79800000D03*
X118085000Y-72790000D03*
D23*
%TO.P,SW39,1,1*%
%TO.N,Vol Down*%
X120575000Y-78550000D03*
%TO.P,SW39,2,2*%
%TO.N,CPGND*%
X120575000Y-74050000D03*
%TD*%
D24*
%TO.P,U2,1,3V3_1*%
%TO.N,+3.3V*%
X59755000Y-51145000D03*
D25*
%TO.P,U2,2,5V_2*%
%TO.N,+5V*%
X62295000Y-51145000D03*
%TO.P,U2,3,GPIO2/SDA1*%
%TO.N,SDA*%
X59755000Y-53685000D03*
%TO.P,U2,4,5V_4*%
%TO.N,+5V*%
X62295000Y-53685000D03*
%TO.P,U2,5,GPIO3/SCL*%
%TO.N,SCL*%
X59755000Y-56225000D03*
%TO.P,U2,6,GND_6*%
%TO.N,CPGND*%
X62295000Y-56225000D03*
%TO.P,U2,7,GPIO4/GPIO_GCLK*%
%TO.N,DAC_SCK*%
X59755000Y-58765000D03*
%TO.P,U2,8,GPIO14/TXD0*%
%TO.N,TXD0*%
X62295000Y-58765000D03*
%TO.P,U2,9,GND_9*%
%TO.N,CPGND*%
X59755000Y-61305000D03*
%TO.P,U2,10,GPIO15/RXD0*%
%TO.N,RXD0*%
X62295000Y-61305000D03*
%TO.P,U2,11,GPIO17/GPIO_GEN0*%
%TO.N,TP_Intrerrupt*%
X59755000Y-63845000D03*
%TO.P,U2,12,GPIO18/GPIO_GEN1*%
%TO.N,I2S BCK*%
X62295000Y-63845000D03*
%TO.P,U2,13,GPIO27/GPIO_GEN2*%
%TO.N,unconnected-(U2-GPIO27{slash}GPIO_GEN2-Pad13)*%
X59755000Y-66385000D03*
%TO.P,U2,14,GND_14*%
%TO.N,CPGND*%
X62295000Y-66385000D03*
%TO.P,U2,15,GPIO22/GPIO_GEN3*%
%TO.N,GPIO22*%
X59755000Y-68925000D03*
%TO.P,U2,16,GPIO23/GPIO_GEN4*%
%TO.N,ENABLE_BACKLIGHT*%
X62295000Y-68925000D03*
%TO.P,U2,17,3V3_17*%
%TO.N,+3.3V*%
X59755000Y-71465000D03*
%TO.P,U2,18,GPIO24/GPIO_GEN5*%
%TO.N,LCD_RS*%
X62295000Y-71465000D03*
%TO.P,U2,19,GPIO10/SPI_MOSI*%
%TO.N,MOSI*%
X59755000Y-74005000D03*
%TO.P,U2,20,GND_20*%
%TO.N,CPGND*%
X62295000Y-74005000D03*
%TO.P,U2,21,GPIO9/SPI_MISO*%
%TO.N,MISO*%
X59755000Y-76545000D03*
%TO.P,U2,22,GPIO25/GPIO_GEN6*%
%TO.N,RST*%
X62295000Y-76545000D03*
%TO.P,U2,23,GPIO11/SPI_SCLK*%
%TO.N,SCLK*%
X59755000Y-79085000D03*
%TO.P,U2,24,GPIO8/SPI_~{CE0}*%
%TO.N,LCD_CS*%
X62295000Y-79085000D03*
%TO.P,U2,25,GND_25*%
%TO.N,CPGND*%
X59755000Y-81625000D03*
%TO.P,U2,26,GPIO7/SPI_~{CE1}*%
%TO.N,TP_CS*%
X62295000Y-81625000D03*
%TO.P,U2,27,ID_SD*%
%TO.N,unconnected-(U2-ID_SD-Pad27)*%
X59755000Y-84165000D03*
%TO.P,U2,28,ID_SC*%
%TO.N,unconnected-(U2-ID_SC-Pad28)*%
X62295000Y-84165000D03*
%TO.P,U2,29,GPIO5*%
%TO.N,unconnected-(U2-GPIO5-Pad29)*%
X59755000Y-86705000D03*
%TO.P,U2,30,GND_30*%
%TO.N,CPGND*%
X62295000Y-86705000D03*
%TO.P,U2,31,GPIO6*%
%TO.N,unconnected-(U2-GPIO6-Pad31)*%
X59755000Y-89245000D03*
%TO.P,U2,32,GPIO12*%
%TO.N,GPIO12*%
X62295000Y-89245000D03*
%TO.P,U2,33,GPIO13*%
%TO.N,unconnected-(U2-GPIO13-Pad33)*%
X59755000Y-91785000D03*
%TO.P,U2,34,GND_34*%
%TO.N,CPGND*%
X62295000Y-91785000D03*
%TO.P,U2,35,GPIO19*%
%TO.N,I2S LRCK*%
X59755000Y-94325000D03*
%TO.P,U2,36,GPIO16*%
%TO.N,GPIO16*%
X62295000Y-94325000D03*
%TO.P,U2,37,GPIO26*%
%TO.N,unconnected-(U2-GPIO26-Pad37)*%
X59755000Y-96865000D03*
%TO.P,U2,38,GPIO20*%
%TO.N,I2S DIN*%
X62295000Y-96865000D03*
%TO.P,U2,39,GND_39*%
%TO.N,CPGND*%
X59755000Y-99405000D03*
%TO.P,U2,40,GPIO21*%
%TO.N,GPIO21*%
X62295000Y-99405000D03*
%TD*%
D22*
%TO.P,SW43,*%
%TO.N,*%
X118085000Y-97250000D03*
X118085000Y-90240000D03*
D23*
%TO.P,SW43,1,1*%
%TO.N,Power button*%
X120575000Y-96000000D03*
%TO.P,SW43,2,2*%
%TO.N,CPGND*%
X120575000Y-91500000D03*
%TD*%
D26*
%TO.P,J2,1,Pin_1*%
%TO.N,VBAT*%
X85468177Y-157875000D03*
D27*
%TO.P,J2,2,Pin_2*%
%TO.N,CPGND*%
X87468177Y-157875000D03*
%TD*%
D28*
%TO.P,P1,S1,SHIELD*%
%TO.N,unconnected-(P1-SHIELD-PadS1)_1*%
X113145000Y-161375000D03*
%TO.N,unconnected-(P1-SHIELD-PadS1)_3*%
X113145000Y-157575000D03*
%TO.N,unconnected-(P1-SHIELD-PadS1)*%
X104505000Y-161375000D03*
%TO.N,unconnected-(P1-SHIELD-PadS1)_2*%
X104505000Y-157575000D03*
%TD*%
D24*
%TO.P,J5,1,Pin_1*%
%TO.N,CPGND*%
X121325000Y-130214386D03*
D29*
%TO.P,J5,2,Pin_2*%
%TO.N,+5V*%
X121325000Y-132754386D03*
%TO.P,J5,3,Pin_3*%
%TO.N,GPIO12*%
X121325000Y-135294386D03*
%TO.P,J5,4,Pin_4*%
%TO.N,GPIO21*%
X121325000Y-137834386D03*
%TO.P,J5,5,Pin_5*%
%TO.N,GPIO22*%
X121325000Y-140374386D03*
%TO.P,J5,6,Pin_6*%
%TO.N,MOSI*%
X121325000Y-142914386D03*
%TO.P,J5,7,Pin_7*%
%TO.N,MISO*%
X121325000Y-145454386D03*
%TO.P,J5,8,Pin_8*%
%TO.N,SCLK*%
X121325000Y-147994386D03*
%TD*%
D26*
%TO.P,LS1,1,1*%
%TO.N,Net-(C23-Pad2)*%
X80325000Y-69325000D03*
D27*
%TO.P,LS1,2,2*%
%TO.N,Net-(C22-Pad1)*%
X82325000Y-69325000D03*
%TD*%
D24*
%TO.P,J4,1,Pin_1*%
%TO.N,CPGND*%
X35500000Y-130220000D03*
D29*
%TO.P,J4,2,Pin_2*%
%TO.N,+3.3V*%
X35500000Y-132760000D03*
%TO.P,J4,3,Pin_3*%
%TO.N,+5V*%
X35500000Y-135300000D03*
%TO.P,J4,4,Pin_4*%
%TO.N,GPIO16*%
X35500000Y-137840000D03*
%TO.P,J4,5,Pin_5*%
%TO.N,RXD0*%
X35500000Y-140380000D03*
%TO.P,J4,6,Pin_6*%
%TO.N,TXD0*%
X35500000Y-142920000D03*
%TO.P,J4,7,Pin_7*%
%TO.N,SDA*%
X35500000Y-145460000D03*
%TO.P,J4,8,Pin_8*%
%TO.N,SCL*%
X35500000Y-148000000D03*
%TD*%
D30*
%TO.N,CPGND*%
X109771257Y-79077556D03*
%TO.N,Column 1*%
X46000000Y-140500000D03*
X39190275Y-116486123D03*
X44000000Y-120000000D03*
X44000000Y-150000000D03*
X47000000Y-131000000D03*
%TO.N,Column 2*%
X52325000Y-112400000D03*
X56500000Y-140000000D03*
X56000000Y-150000000D03*
X52500000Y-120000000D03*
X56500000Y-130000000D03*
X50500000Y-116000000D03*
%TO.N,Column 3*%
X56825000Y-111875000D03*
X65000000Y-130000000D03*
X64500000Y-150000000D03*
X65000000Y-140000000D03*
X61000000Y-120000000D03*
X62000000Y-116000000D03*
%TO.N,Column 4*%
X73500000Y-140000000D03*
X73500000Y-116000000D03*
X73500000Y-130000000D03*
X69500000Y-120000000D03*
%TO.N,Column 5*%
X78000000Y-120000000D03*
X82000000Y-140000000D03*
X51500000Y-126000000D03*
X82500000Y-150000000D03*
X82000000Y-130000000D03*
%TO.N,Column 6*%
X38000000Y-129000000D03*
X90500000Y-140000000D03*
X86500000Y-120000000D03*
X90500000Y-130000000D03*
%TO.N,Column 7*%
X99000000Y-140000000D03*
X95000000Y-120000000D03*
X99000000Y-130000000D03*
X40500000Y-129000000D03*
%TO.N,Column 8*%
X107500000Y-140000000D03*
X43400000Y-125500000D03*
X104000000Y-120000000D03*
X99500000Y-150000000D03*
X107500000Y-130000000D03*
%TO.N,Column 9*%
X53000000Y-156375000D03*
X116500000Y-130000000D03*
X84643177Y-156375000D03*
X112500000Y-120000000D03*
X109500000Y-150000000D03*
%TO.N,Column 10*%
X118500000Y-140000000D03*
X61000000Y-135000000D03*
X120500000Y-120000000D03*
X48500000Y-136000000D03*
X120325000Y-149875000D03*
%TO.N,Net-(JP1-A)*%
X107825000Y-96375000D03*
%TO.N,Net-(U1-OUTL)*%
X86825000Y-82875000D03*
X100739891Y-71340512D03*
%TO.N,GPIO16*%
X44825000Y-99875000D03*
%TO.N,SCL*%
X51825000Y-56375000D03*
X43825000Y-134875000D03*
X48825000Y-56375000D03*
X40499000Y-120375000D03*
%TO.N,SDA*%
X36700000Y-115600000D03*
X48825000Y-53875000D03*
X51825000Y-53875000D03*
%TO.N,Net-(U1-OUTR)*%
X88325000Y-80375000D03*
X101368712Y-72831288D03*
%TO.N,+5V*%
X57825000Y-128875000D03*
X79325000Y-82150000D03*
X75325000Y-158875000D03*
X51325000Y-50875000D03*
X51325000Y-59375000D03*
%TO.N,Line 1*%
X37500000Y-108500000D03*
%TO.N,Line 2*%
X37000000Y-117836367D03*
%TO.N,Line 4*%
X66500000Y-137000000D03*
%TO.N,Line 5*%
X69000000Y-146500000D03*
%TO.N,Vol Up*%
X35144682Y-117993212D03*
%TO.N,Vol Down*%
X35000000Y-124000000D03*
%TO.N,I2S LRCK*%
X91925000Y-71375000D03*
%TO.N,I2S BCK*%
X79825000Y-64375000D03*
%TO.N,I2S DIN*%
X70701000Y-95875000D03*
X90725000Y-71990512D03*
%TO.N,+3.3V*%
X103569283Y-66030913D03*
X105239891Y-74690512D03*
X87739891Y-67190512D03*
X107410016Y-90960015D03*
%TO.N,Net-(U4-~{SD})*%
X105325000Y-58875000D03*
X84825000Y-75375000D03*
%TO.N,GPIO22*%
X52825000Y-72375000D03*
%TO.N,Line 3*%
X65500000Y-127000000D03*
%TO.N,MOSI*%
X84825000Y-97375000D03*
X92325000Y-111875000D03*
%TO.N,MISO*%
X82800735Y-97899265D03*
X89325000Y-109375000D03*
%TO.N,CPGND*%
X91825000Y-73890512D03*
X100401923Y-47335000D03*
X93825000Y-89375000D03*
X71825000Y-136375000D03*
X90248077Y-49875000D03*
X84461735Y-47284752D03*
X79020543Y-57444752D03*
X95325000Y-49875000D03*
X79020543Y-44744752D03*
X77825000Y-73375000D03*
X51325000Y-66375000D03*
X76482081Y-47284752D03*
X103249750Y-63975966D03*
X95325000Y-54955000D03*
X97838800Y-59508882D03*
X76482081Y-57444752D03*
X56194027Y-128833054D03*
X90223416Y-59508882D03*
X86646363Y-64346177D03*
X77825000Y-76125000D03*
X66325000Y-162375000D03*
X105825000Y-158875000D03*
X86770287Y-69866887D03*
X109756482Y-70202236D03*
X81898612Y-59458634D03*
X105830006Y-63953529D03*
X76482081Y-49824752D03*
X106849771Y-78540002D03*
X97863461Y-57495000D03*
X111325000Y-46875000D03*
X93325000Y-63875000D03*
X97863461Y-47335000D03*
X77325000Y-64875000D03*
X79020543Y-49824752D03*
X66548263Y-159473797D03*
X81325000Y-83875000D03*
X90248077Y-57495000D03*
X95325000Y-52415000D03*
X80825000Y-82150000D03*
X92786538Y-47335000D03*
X100401923Y-57495000D03*
X87709615Y-47335000D03*
X98078019Y-63975966D03*
X87825000Y-162375000D03*
X79020543Y-52364752D03*
X84461735Y-52364752D03*
X84437074Y-59458634D03*
X79020543Y-47284752D03*
X97863461Y-52415000D03*
X87709615Y-52415000D03*
X84461735Y-44744752D03*
X56825000Y-64375000D03*
X92761877Y-59508882D03*
X98825000Y-91875000D03*
X97863461Y-54955000D03*
X100014878Y-63891667D03*
X73325000Y-66875000D03*
X91825000Y-162875000D03*
X79020543Y-54904752D03*
X92786538Y-52415000D03*
X111825000Y-156375000D03*
X54325000Y-152875000D03*
X95325000Y-44795000D03*
X87709615Y-44795000D03*
X87709615Y-57495000D03*
X50825000Y-162375000D03*
X84461735Y-54904752D03*
X87709615Y-49875000D03*
X95300339Y-59508882D03*
X92786538Y-44795000D03*
X78995882Y-59458634D03*
X97863461Y-44795000D03*
X100377262Y-59508882D03*
X75825000Y-136375000D03*
X81923273Y-54904752D03*
X95325000Y-57495000D03*
X91925000Y-70375000D03*
X90248077Y-52415000D03*
X81923273Y-52364752D03*
X76482081Y-52364752D03*
X114325000Y-93875000D03*
X76482081Y-44744752D03*
X92786538Y-49875000D03*
X81923273Y-47284752D03*
X91325000Y-96875000D03*
X81923273Y-57444752D03*
X97863461Y-49875000D03*
X57548263Y-160986099D03*
X95325000Y-47335000D03*
X100401923Y-49875000D03*
X92786538Y-57495000D03*
X92786538Y-54955000D03*
X81923273Y-49824752D03*
X95148058Y-63941669D03*
X90248077Y-47335000D03*
X100401923Y-52415000D03*
X82325000Y-155875000D03*
X100401923Y-54955000D03*
X107914891Y-74515512D03*
X100401923Y-44795000D03*
X73954004Y-155814674D03*
X111325000Y-96375000D03*
X81923273Y-44744752D03*
X76482081Y-54904752D03*
X84461735Y-49824752D03*
X54548263Y-157473797D03*
X90248077Y-54955000D03*
X84461735Y-57444752D03*
X90248077Y-44795000D03*
X77325000Y-81875000D03*
X87709615Y-54955000D03*
X98825000Y-96375000D03*
X87684954Y-59508882D03*
X109734045Y-66219667D03*
X55048263Y-160973797D03*
X84325000Y-73375000D03*
X72454004Y-157314674D03*
%TO.N,VBUS*%
X83325000Y-161375000D03*
X66548263Y-160973797D03*
X67325000Y-155875000D03*
X54548263Y-162783152D03*
X82325000Y-157875000D03*
%TO.N,Net-(D41-A)*%
X95826000Y-158690295D03*
X95825000Y-162375000D03*
%TO.N,Net-(IC1-LBO)*%
X58016835Y-161686099D03*
X53548263Y-161973797D03*
%TO.N,VOUT*%
X71325000Y-158875000D03*
X57325000Y-152875000D03*
X51325000Y-154875000D03*
%TD*%
D31*
%TO.N,Line 1*%
X39000000Y-108500000D02*
X49325000Y-108500000D01*
X49350000Y-110100000D02*
X49350000Y-108525000D01*
X49350000Y-108525000D02*
X49325000Y-108500000D01*
%TO.N,Line 3*%
X94000000Y-127000000D02*
X102108836Y-127000000D01*
X102071846Y-128423756D02*
X102071846Y-127036990D01*
X102071846Y-127036990D02*
X102108836Y-127000000D01*
X85500000Y-127000000D02*
X93325000Y-127000000D01*
X93509346Y-128423756D02*
X93509346Y-127184346D01*
X93509346Y-127184346D02*
X93325000Y-127000000D01*
X77000000Y-127000000D02*
X84825000Y-127000000D01*
X84946846Y-128423756D02*
X84946846Y-127121846D01*
X84946846Y-127121846D02*
X84825000Y-127000000D01*
X68500000Y-127000000D02*
X76325000Y-127000000D01*
X76384346Y-127059346D02*
X76325000Y-127000000D01*
X76384346Y-128423756D02*
X76384346Y-127059346D01*
X65500000Y-127000000D02*
X67825000Y-127000000D01*
X67821846Y-128423756D02*
X67821846Y-127003154D01*
X67821846Y-127003154D02*
X67825000Y-127000000D01*
X51500000Y-127000000D02*
X59325000Y-127000000D01*
X59259346Y-128423756D02*
X59259346Y-127065654D01*
X59259346Y-127065654D02*
X59325000Y-127000000D01*
X43558102Y-127000000D02*
X50825000Y-127000000D01*
X50696846Y-127128154D02*
X50825000Y-127000000D01*
X50696846Y-128423756D02*
X50696846Y-127128154D01*
%TO.N,Line 4*%
X41728214Y-137000000D02*
X50612527Y-137000000D01*
X50600000Y-137400000D02*
X50612527Y-137387473D01*
X50612527Y-137387473D02*
X50612527Y-137000000D01*
X51000000Y-137000000D02*
X59205901Y-137000000D01*
X59183333Y-138628214D02*
X59183333Y-137022568D01*
X59183333Y-137022568D02*
X59205901Y-137000000D01*
X66500000Y-137000000D02*
X67825000Y-137000000D01*
X67766667Y-138628214D02*
X67766667Y-137058333D01*
X67766667Y-137058333D02*
X67825000Y-137000000D01*
X68500000Y-137000000D02*
X76325000Y-137000000D01*
X76350000Y-138628214D02*
X76350000Y-137025000D01*
X76350000Y-137025000D02*
X76325000Y-137000000D01*
X77000000Y-137000000D02*
X84941150Y-137000000D01*
X84933333Y-137566667D02*
X84941150Y-137558850D01*
X84941150Y-137558850D02*
X84941150Y-137000000D01*
X85500000Y-137000000D02*
X93523306Y-137000000D01*
X93516667Y-138628214D02*
X93516667Y-137006639D01*
X93516667Y-137006639D02*
X93523306Y-137000000D01*
X94000000Y-137000000D02*
X102094244Y-137000000D01*
X102100000Y-138628214D02*
X102100000Y-137005756D01*
X102100000Y-137005756D02*
X102094244Y-137000000D01*
%TO.N,Line 5*%
X93325000Y-146500000D02*
X93599576Y-146500000D01*
X93600000Y-148350000D02*
X93600000Y-146775000D01*
X93600000Y-146775000D02*
X93599576Y-146774576D01*
X93599576Y-146774576D02*
X93599576Y-146500000D01*
X93599576Y-146500000D02*
X93825000Y-146500000D01*
X77000000Y-146500000D02*
X93325000Y-146500000D01*
X51000000Y-146500000D02*
X59078499Y-146500000D01*
X59100000Y-146900000D02*
X59100000Y-146521501D01*
X59100000Y-146521501D02*
X59078499Y-146500000D01*
X40450000Y-146500000D02*
X50123742Y-146500000D01*
X50100000Y-147400000D02*
X50100000Y-146523742D01*
X50100000Y-146523742D02*
X50123742Y-146500000D01*
X69000000Y-146500000D02*
X76572086Y-146500000D01*
X76600000Y-146527914D02*
X76572086Y-146500000D01*
X76600000Y-148350000D02*
X76600000Y-146527914D01*
%TO.N,Vol Up*%
X120412299Y-62875000D02*
X120412299Y-62462299D01*
X120412299Y-62875000D02*
X120412299Y-61262701D01*
X120412299Y-61262701D02*
X120575000Y-61100000D01*
X120412299Y-63462299D02*
X120412299Y-62875000D01*
%TO.N,Net-(D19-A)*%
X81476244Y-134723756D02*
X82325000Y-133875000D01*
X82325000Y-133875000D02*
X82325000Y-132875000D01*
X80184346Y-134723756D02*
X81476244Y-134723756D01*
%TO.N,Column 5*%
X77090100Y-119901000D02*
X76970550Y-120020550D01*
X77901000Y-119901000D02*
X77090100Y-119901000D01*
X78000000Y-120000000D02*
X77901000Y-119901000D01*
X76970550Y-120020550D02*
X76975000Y-120025000D01*
X76975000Y-120025000D02*
X76975000Y-121025000D01*
X76975000Y-121025000D02*
X74000000Y-124000000D01*
X74000000Y-124000000D02*
X74000000Y-126000000D01*
X74000000Y-126000000D02*
X73750000Y-126250000D01*
X73750000Y-126250000D02*
X51750000Y-126250000D01*
X51750000Y-126250000D02*
X51500000Y-126000000D01*
%TO.N,Column 9*%
X109341073Y-150952627D02*
X110117073Y-151728627D01*
X110117073Y-151728627D02*
X110117073Y-154382927D01*
X102825000Y-156500000D02*
X53000000Y-156500000D01*
X110117073Y-154382927D02*
X108000000Y-156500000D01*
X53000000Y-156500000D02*
X53000000Y-156375000D01*
X108000000Y-156500000D02*
X105825000Y-156500000D01*
X105825000Y-156500000D02*
X105200000Y-155875000D01*
X105200000Y-155875000D02*
X103450000Y-155875000D01*
X103450000Y-155875000D02*
X102825000Y-156500000D01*
%TO.N,Column 5*%
X82325000Y-131125000D02*
X82325000Y-130325000D01*
X82325000Y-130325000D02*
X82000000Y-130000000D01*
%TO.N,Column 6*%
X90825000Y-131125000D02*
X90825000Y-130325000D01*
X90825000Y-130325000D02*
X90500000Y-130000000D01*
%TO.N,Net-(D18-A)*%
X88746846Y-134723756D02*
X89776244Y-134723756D01*
X89776244Y-134723756D02*
X90825000Y-133675000D01*
X90825000Y-133675000D02*
X90825000Y-132875000D01*
%TO.N,Net-(D1-A)*%
X44150000Y-114850000D02*
X44150000Y-113900000D01*
X41875000Y-116000000D02*
X43000000Y-116000000D01*
X43000000Y-116000000D02*
X44150000Y-114850000D01*
%TO.N,Column 1*%
X39676398Y-116000000D02*
X39190275Y-116486123D01*
X44000000Y-121000000D02*
X44000000Y-120000000D01*
X44319794Y-150891805D02*
X44319794Y-150319794D01*
X45853730Y-141261715D02*
X45853730Y-140646270D01*
X40125000Y-116000000D02*
X39676398Y-116000000D01*
X45853730Y-140646270D02*
X46000000Y-140500000D01*
X47000000Y-131000000D02*
X47695489Y-131000000D01*
X47695489Y-131000000D02*
X47820489Y-131125000D01*
X44319794Y-150319794D02*
X44000000Y-150000000D01*
%TO.N,Column 2*%
X56000000Y-150684158D02*
X55832756Y-150851402D01*
X56500000Y-141089762D02*
X56328047Y-141261715D01*
X56500000Y-131075870D02*
X56450870Y-131125000D01*
X51500000Y-113225000D02*
X51500000Y-116000000D01*
X56500000Y-130000000D02*
X56500000Y-131075870D01*
X52325000Y-112400000D02*
X51500000Y-113225000D01*
X56000000Y-150000000D02*
X56000000Y-150684158D01*
X51500000Y-116000000D02*
X50500000Y-116000000D01*
X52500000Y-121000000D02*
X52500000Y-120000000D01*
X56500000Y-140000000D02*
X56500000Y-141089762D01*
X52325000Y-112400000D02*
X52325000Y-112296275D01*
%TO.N,Net-(D2-A)*%
X55650000Y-115350000D02*
X55650000Y-113900000D01*
X53250000Y-116000000D02*
X55000000Y-116000000D01*
X55000000Y-116000000D02*
X55650000Y-115350000D01*
%TO.N,Net-(D3-A)*%
X67150000Y-114850000D02*
X67150000Y-113900000D01*
X64875000Y-116000000D02*
X66000000Y-116000000D01*
X66000000Y-116000000D02*
X67150000Y-114850000D01*
%TO.N,Column 3*%
X65000000Y-140000000D02*
X65000000Y-141211466D01*
X63125000Y-116000000D02*
X62000000Y-116000000D01*
X64500000Y-150646271D02*
X64810754Y-150957025D01*
X56825000Y-111875000D02*
X57000000Y-112050000D01*
X61000000Y-120000000D02*
X61000000Y-121000000D01*
X65000000Y-130000000D02*
X65000000Y-131125000D01*
X57000000Y-112050000D02*
X57000000Y-112500000D01*
X60500000Y-116000000D02*
X62000000Y-116000000D01*
X57000000Y-112500000D02*
X60500000Y-116000000D01*
X65000000Y-141211466D02*
X64949751Y-141261715D01*
X64500000Y-150000000D02*
X64500000Y-150646271D01*
%TO.N,Column 4*%
X73750000Y-115750000D02*
X73500000Y-116000000D01*
X73500000Y-140000000D02*
X73500000Y-141216789D01*
X73500000Y-141216789D02*
X73544926Y-141261715D01*
X69500000Y-120000000D02*
X69500000Y-121000000D01*
X74500000Y-115750000D02*
X73750000Y-115750000D01*
X73500000Y-130000000D02*
X73500000Y-131125000D01*
%TO.N,Net-(D4-A)*%
X78250000Y-115750000D02*
X78650000Y-115350000D01*
X76250000Y-115750000D02*
X78250000Y-115750000D01*
X78650000Y-115350000D02*
X78650000Y-113900000D01*
%TO.N,Net-(D5-A)*%
X44000000Y-124000000D02*
X44000000Y-122750000D01*
X43200000Y-124800000D02*
X44000000Y-124000000D01*
X41800000Y-124800000D02*
X43200000Y-124800000D01*
%TO.N,Net-(D6-A)*%
X52500000Y-124000000D02*
X52500000Y-122750000D01*
X50355556Y-124800000D02*
X51700000Y-124800000D01*
X51700000Y-124800000D02*
X52500000Y-124000000D01*
%TO.N,Net-(D7-A)*%
X61000000Y-124000000D02*
X61000000Y-122750000D01*
X60200000Y-124800000D02*
X61000000Y-124000000D01*
X58911111Y-124800000D02*
X60200000Y-124800000D01*
%TO.N,Net-(D8-A)*%
X69500000Y-124000000D02*
X69500000Y-122750000D01*
X67466667Y-124800000D02*
X68700000Y-124800000D01*
X68700000Y-124800000D02*
X69500000Y-124000000D01*
%TO.N,Net-(D9-A)*%
X78000000Y-124000000D02*
X78000000Y-122750000D01*
X77200000Y-124800000D02*
X78000000Y-124000000D01*
X76022222Y-124800000D02*
X77200000Y-124800000D01*
%TO.N,Column 5*%
X82500000Y-150695658D02*
X82273841Y-150921817D01*
X78000000Y-121000000D02*
X78000000Y-120000000D01*
X82500000Y-150000000D02*
X82500000Y-150695658D01*
X82000000Y-141174183D02*
X82087532Y-141261715D01*
X82000000Y-140000000D02*
X82000000Y-141174183D01*
%TO.N,Net-(D10-A)*%
X85700000Y-124800000D02*
X86500000Y-124000000D01*
X84577778Y-124800000D02*
X85700000Y-124800000D01*
X86500000Y-124000000D02*
X86500000Y-122750000D01*
%TO.N,Column 6*%
X90500000Y-140000000D02*
X90500000Y-141080073D01*
X86500000Y-121000000D02*
X86500000Y-120000000D01*
X90681642Y-141261715D02*
X89855642Y-142087715D01*
X41607501Y-142087715D02*
X38000000Y-138480214D01*
X89855642Y-142087715D02*
X41607501Y-142087715D01*
X90500000Y-141080073D02*
X90681642Y-141261715D01*
X38000000Y-138480214D02*
X38000000Y-129000000D01*
%TO.N,Net-(D11-A)*%
X93133333Y-124800000D02*
X94200000Y-124800000D01*
X94200000Y-124800000D02*
X95000000Y-124000000D01*
X95000000Y-124000000D02*
X95000000Y-122750000D01*
%TO.N,Column 7*%
X99242046Y-131125000D02*
X98416046Y-131951000D01*
X98416046Y-131951000D02*
X43451000Y-131951000D01*
X99000000Y-130000000D02*
X99000000Y-130882954D01*
X95000000Y-121000000D02*
X95000000Y-120000000D01*
X99000000Y-140924304D02*
X99337411Y-141261715D01*
X43451000Y-131951000D02*
X40500000Y-129000000D01*
X99000000Y-130882954D02*
X99242046Y-131125000D01*
X99000000Y-140000000D02*
X99000000Y-140924304D01*
%TO.N,Column 8*%
X107500000Y-140813057D02*
X107948658Y-141261715D01*
X103648456Y-121000000D02*
X102822456Y-121826000D01*
X46976000Y-121924000D02*
X43400000Y-125500000D01*
X77000000Y-119500000D02*
X76924000Y-119500000D01*
X103648456Y-120351544D02*
X104000000Y-120000000D01*
X103648456Y-121000000D02*
X103648456Y-120351544D01*
X81326000Y-121826000D02*
X78899000Y-119399000D01*
X107500000Y-130817942D02*
X107807058Y-131125000D01*
X99500000Y-150000000D02*
X99500000Y-150625000D01*
X81500000Y-121826000D02*
X81326000Y-121826000D01*
X77101000Y-119399000D02*
X77000000Y-119500000D01*
X102822456Y-121826000D02*
X81500000Y-121826000D01*
X76924000Y-119500000D02*
X74500000Y-121924000D01*
X99500000Y-150625000D02*
X99298286Y-150826714D01*
X74500000Y-121924000D02*
X46976000Y-121924000D01*
X107500000Y-140000000D02*
X107500000Y-140813057D01*
X107500000Y-130000000D02*
X107500000Y-130817942D01*
X78899000Y-119399000D02*
X77101000Y-119399000D01*
%TO.N,Net-(D12-A)*%
X101688889Y-124800000D02*
X102700000Y-124800000D01*
X103648456Y-123851544D02*
X103648456Y-122750000D01*
X102700000Y-124800000D02*
X103648456Y-123851544D01*
%TO.N,Column 9*%
X109500000Y-150793700D02*
X109341073Y-150952627D01*
X112170587Y-120329413D02*
X112500000Y-120000000D01*
X112170587Y-121000000D02*
X112170587Y-120329413D01*
X116500000Y-130000000D02*
X116500000Y-131125000D01*
X109500000Y-150000000D02*
X109500000Y-150793700D01*
%TO.N,Net-(D13-A)*%
X111200000Y-124800000D02*
X112170587Y-123829413D01*
X112170587Y-123829413D02*
X112170587Y-122750000D01*
X110244444Y-124800000D02*
X111200000Y-124800000D01*
%TO.N,Net-(D14-A)*%
X120734641Y-123765359D02*
X120734641Y-122750000D01*
X118800000Y-124800000D02*
X119700000Y-124800000D01*
X119700000Y-124800000D02*
X120734641Y-123765359D01*
D32*
%TO.N,Column 10*%
X120357962Y-151107962D02*
X120325000Y-151075000D01*
D31*
X61000000Y-135000000D02*
X60000000Y-136000000D01*
X118802364Y-140302364D02*
X118500000Y-140000000D01*
X60000000Y-136000000D02*
X48500000Y-136000000D01*
X120734641Y-120234641D02*
X120500000Y-120000000D01*
D32*
X120325000Y-151075000D02*
X120325000Y-149875000D01*
D31*
X120734641Y-121000000D02*
X120734641Y-120234641D01*
X118802364Y-141261715D02*
X118802364Y-140302364D01*
%TO.N,Net-(D15-A)*%
X115776244Y-134723756D02*
X116500000Y-134000000D01*
X116500000Y-134000000D02*
X116500000Y-132875000D01*
X114434346Y-134723756D02*
X115776244Y-134723756D01*
%TO.N,Net-(D16-A)*%
X105871846Y-134723756D02*
X106776244Y-134723756D01*
X106776244Y-134723756D02*
X107807058Y-133692942D01*
X107807058Y-133692942D02*
X107807058Y-132875000D01*
%TO.N,Net-(D17-A)*%
X98276244Y-134723756D02*
X99242046Y-133757954D01*
X97309346Y-134723756D02*
X98276244Y-134723756D01*
X99242046Y-133757954D02*
X99242046Y-132875000D01*
%TO.N,Net-(D20-A)*%
X73500000Y-134000000D02*
X73500000Y-132875000D01*
X71621846Y-134723756D02*
X72776244Y-134723756D01*
X72776244Y-134723756D02*
X73500000Y-134000000D01*
%TO.N,Net-(D21-A)*%
X63059346Y-134723756D02*
X64276244Y-134723756D01*
X65000000Y-134000000D02*
X65000000Y-132875000D01*
X64276244Y-134723756D02*
X65000000Y-134000000D01*
%TO.N,Net-(D22-A)*%
X56450870Y-134049130D02*
X56450870Y-132875000D01*
X54496846Y-134723756D02*
X55776244Y-134723756D01*
X55776244Y-134723756D02*
X56450870Y-134049130D01*
%TO.N,Net-(D23-A)*%
X47276244Y-134723756D02*
X47820489Y-134179511D01*
X45934346Y-134723756D02*
X47276244Y-134723756D01*
X47820489Y-134179511D02*
X47820489Y-132875000D01*
%TO.N,Net-(D24-A)*%
X45853730Y-144146270D02*
X45853730Y-143011715D01*
X45071786Y-144928214D02*
X45853730Y-144146270D01*
X43900000Y-144928214D02*
X45071786Y-144928214D01*
%TO.N,Net-(D25-A)*%
X54400000Y-144928214D02*
X55571786Y-144928214D01*
X55571786Y-144928214D02*
X56328047Y-144171953D01*
X56328047Y-144171953D02*
X56328047Y-143011715D01*
%TO.N,Net-(D26-A)*%
X64071786Y-144928214D02*
X64949751Y-144050249D01*
X62983333Y-144928214D02*
X64071786Y-144928214D01*
X64949751Y-144050249D02*
X64949751Y-143011715D01*
%TO.N,Net-(D27-A)*%
X73544926Y-144455074D02*
X73544926Y-143011715D01*
X73071786Y-144928214D02*
X73544926Y-144455074D01*
X71566667Y-144928214D02*
X73071786Y-144928214D01*
%TO.N,Net-(D28-A)*%
X80150000Y-144928214D02*
X81071786Y-144928214D01*
X82087532Y-143912468D02*
X82087532Y-143011715D01*
X81071786Y-144928214D02*
X82087532Y-143912468D01*
%TO.N,Net-(D29-A)*%
X90071786Y-144928214D02*
X90681642Y-144318358D01*
X88733333Y-144928214D02*
X90071786Y-144928214D01*
X90681642Y-144318358D02*
X90681642Y-143011715D01*
%TO.N,Net-(D30-A)*%
X98571786Y-144928214D02*
X99337411Y-144162589D01*
X97316667Y-144928214D02*
X98571786Y-144928214D01*
X99337411Y-144162589D02*
X99337411Y-143011715D01*
%TO.N,Net-(D31-A)*%
X107948658Y-144051342D02*
X107948658Y-143011715D01*
X107071786Y-144928214D02*
X107948658Y-144051342D01*
X105900000Y-144928214D02*
X107071786Y-144928214D01*
%TO.N,Net-(D32-A)*%
X116900000Y-144928214D02*
X118071786Y-144928214D01*
X118071786Y-144928214D02*
X118802364Y-144197636D01*
X118802364Y-144197636D02*
X118802364Y-143011715D01*
%TO.N,Net-(D33-A)*%
X120357962Y-153642038D02*
X120357962Y-152857962D01*
X119350000Y-154650000D02*
X120357962Y-153642038D01*
X118400000Y-154650000D02*
X119350000Y-154650000D01*
%TO.N,Net-(D34-A)*%
X109341073Y-153658927D02*
X109341073Y-152702627D01*
X108350000Y-154650000D02*
X109341073Y-153658927D01*
X107400000Y-154650000D02*
X108350000Y-154650000D01*
%TO.N,Net-(D35-A)*%
X98350000Y-154650000D02*
X99298286Y-153701714D01*
X99298286Y-153701714D02*
X99298286Y-152576714D01*
X97400000Y-154650000D02*
X98350000Y-154650000D01*
%TO.N,Net-(D36-A)*%
X82273841Y-153726159D02*
X82273841Y-152671817D01*
X81350000Y-154650000D02*
X82273841Y-153726159D01*
X80400000Y-154650000D02*
X81350000Y-154650000D01*
%TO.N,Net-(D37-A)*%
X63850000Y-154650000D02*
X64810754Y-153689246D01*
X62900000Y-154650000D02*
X63850000Y-154650000D01*
X64810754Y-153689246D02*
X64810754Y-152707025D01*
%TO.N,Net-(D38-A)*%
X55832756Y-153667244D02*
X55832756Y-152601402D01*
X54850000Y-154650000D02*
X55832756Y-153667244D01*
X53900000Y-154650000D02*
X54850000Y-154650000D01*
%TO.N,Net-(D39-A)*%
X42400000Y-154650000D02*
X43350000Y-154650000D01*
X44319794Y-153680206D02*
X44319794Y-152641805D01*
X43350000Y-154650000D02*
X44319794Y-153680206D01*
D32*
%TO.N,SCL*%
X51825000Y-56375000D02*
X50325000Y-56375000D01*
X50325000Y-56375000D02*
X48825000Y-56375000D01*
D31*
%TO.N,SDA*%
X50500000Y-53875000D02*
X50325000Y-53700000D01*
X50325000Y-53700000D02*
X49000000Y-53700000D01*
X49000000Y-53700000D02*
X48825000Y-53875000D01*
X51825000Y-53875000D02*
X50500000Y-53875000D01*
%TO.N,LCD_CS*%
X83410000Y-102540000D02*
X82071000Y-101201000D01*
X82071000Y-101201000D02*
X82071000Y-98861000D01*
X82071000Y-98861000D02*
X62295000Y-79085000D01*
%TO.N,TP_Intrerrupt*%
X66125000Y-66850000D02*
X64271000Y-64996000D01*
X86450000Y-95600000D02*
X66125000Y-75275000D01*
X98650000Y-100000000D02*
X94250000Y-95600000D01*
X64271000Y-64996000D02*
X60906000Y-64996000D01*
X66125000Y-75275000D02*
X66125000Y-66850000D01*
X60906000Y-64996000D02*
X59755000Y-63845000D01*
X94250000Y-95600000D02*
X86450000Y-95600000D01*
D32*
%TO.N,+5V*%
X50325000Y-51875000D02*
X51325000Y-50875000D01*
X50325000Y-58375000D02*
X51325000Y-59375000D01*
X50325000Y-58200000D02*
X50325000Y-58375000D01*
D31*
%TO.N,LCD_RS*%
X89691000Y-101201000D02*
X89691000Y-98861000D01*
X91030000Y-102540000D02*
X89691000Y-101201000D01*
X86247443Y-97572500D02*
X88402500Y-97572500D01*
X89691000Y-98861000D02*
X88402500Y-97572500D01*
X62295000Y-71465000D02*
X64165000Y-71465000D01*
X64525000Y-75850057D02*
X86247443Y-97572500D01*
X64525000Y-71825000D02*
X64525000Y-75850057D01*
X64165000Y-71465000D02*
X64525000Y-71825000D01*
%TO.N,RST*%
X62687932Y-76545000D02*
X62295000Y-76545000D01*
X84611000Y-98468068D02*
X62687932Y-76545000D01*
X85950000Y-102540000D02*
X84611000Y-101201000D01*
X84611000Y-101201000D02*
X84611000Y-98468068D01*
%TO.N,TP_CS*%
X79350000Y-101020000D02*
X80870000Y-102540000D01*
X79350000Y-98150000D02*
X79350000Y-101020000D01*
X63300000Y-82100000D02*
X79350000Y-98150000D01*
X62770000Y-82100000D02*
X63300000Y-82100000D01*
X62295000Y-81625000D02*
X62770000Y-82100000D01*
%TO.N,Line 1*%
X37850000Y-109650000D02*
X39000000Y-108500000D01*
X49325000Y-108500000D02*
X50000000Y-108500000D01*
X72350000Y-109850000D02*
X72350000Y-110100000D01*
X50000000Y-108500000D02*
X61000000Y-108500000D01*
X61000000Y-108500000D02*
X71000000Y-108500000D01*
X37850000Y-110100000D02*
X37850000Y-109650000D01*
X60850000Y-110100000D02*
X60850000Y-108650000D01*
X71000000Y-108500000D02*
X72350000Y-109850000D01*
X60850000Y-108650000D02*
X61000000Y-108500000D01*
X39000000Y-108500000D02*
X37500000Y-108500000D01*
%TO.N,Line 2*%
X55111111Y-117388889D02*
X55500000Y-117000000D01*
X63666667Y-118500000D02*
X63666667Y-117333333D01*
X89500000Y-117000000D02*
X98000000Y-117000000D01*
X37336367Y-117836367D02*
X38000000Y-118500000D01*
X97888889Y-118500000D02*
X97888889Y-117111111D01*
X72222222Y-118500000D02*
X72222222Y-117277778D01*
X46555556Y-118500000D02*
X46555556Y-117444444D01*
X106500000Y-117000000D02*
X113500000Y-117000000D01*
X106444444Y-118500000D02*
X106444444Y-117055556D01*
X106444444Y-117055556D02*
X106500000Y-117000000D01*
X55500000Y-117000000D02*
X64000000Y-117000000D01*
X72500000Y-117000000D02*
X81000000Y-117000000D01*
X80777778Y-117222222D02*
X81000000Y-117000000D01*
X47000000Y-117000000D02*
X55500000Y-117000000D01*
X89333333Y-118500000D02*
X89333333Y-117166667D01*
X80777778Y-118500000D02*
X80777778Y-117222222D01*
X38000000Y-118500000D02*
X39500000Y-117000000D01*
X72222222Y-117277778D02*
X72500000Y-117000000D01*
X98000000Y-117000000D02*
X106500000Y-117000000D01*
X64000000Y-117000000D02*
X72500000Y-117000000D01*
X97888889Y-117111111D02*
X98000000Y-117000000D01*
X46555556Y-117444444D02*
X47000000Y-117000000D01*
X89333333Y-117166667D02*
X89500000Y-117000000D01*
X55111111Y-118500000D02*
X55111111Y-117388889D01*
X113500000Y-117000000D02*
X115000000Y-118500000D01*
X39500000Y-117000000D02*
X47000000Y-117000000D01*
X63666667Y-117333333D02*
X64000000Y-117000000D01*
X81000000Y-117000000D02*
X89500000Y-117000000D01*
X37000000Y-117836367D02*
X37336367Y-117836367D01*
%TO.N,Line 4*%
X60000000Y-137000000D02*
X66500000Y-137000000D01*
X113100000Y-137600000D02*
X113100000Y-138628214D01*
X93523306Y-137000000D02*
X94000000Y-137000000D01*
X102500000Y-137000000D02*
X112500000Y-137000000D01*
X76325000Y-137000000D02*
X77000000Y-137000000D01*
X84941150Y-137000000D02*
X85500000Y-137000000D01*
X67825000Y-137000000D02*
X68500000Y-137000000D01*
X59205901Y-137000000D02*
X60000000Y-137000000D01*
X102094244Y-137000000D02*
X102500000Y-137000000D01*
X50600000Y-138628214D02*
X50600000Y-137400000D01*
X112500000Y-137000000D02*
X113100000Y-137600000D01*
X40100000Y-138628214D02*
X41728214Y-137000000D01*
X84933333Y-138628214D02*
X84933333Y-137566667D01*
X50612527Y-137000000D02*
X51000000Y-137000000D01*
%TO.N,Line 5*%
X76572086Y-146500000D02*
X77000000Y-146500000D01*
X103500000Y-146500000D02*
X113500000Y-146500000D01*
X103600000Y-146600000D02*
X103500000Y-146500000D01*
X59100000Y-148350000D02*
X59100000Y-146900000D01*
X113500000Y-146500000D02*
X114600000Y-147600000D01*
X103600000Y-148350000D02*
X103600000Y-146600000D01*
X93825000Y-146500000D02*
X94500000Y-146500000D01*
X114600000Y-147600000D02*
X114600000Y-148350000D01*
X59078499Y-146500000D02*
X59500000Y-146500000D01*
X50100000Y-148350000D02*
X50100000Y-147400000D01*
X50123742Y-146500000D02*
X51000000Y-146500000D01*
X59500000Y-146500000D02*
X69000000Y-146500000D01*
X94500000Y-146500000D02*
X103500000Y-146500000D01*
X38600000Y-148350000D02*
X40450000Y-146500000D01*
%TO.N,Vol Up*%
X37251057Y-107899000D02*
X112399000Y-107899000D01*
X112422528Y-107899000D02*
X112399000Y-107899000D01*
X113601000Y-107899000D02*
X112399000Y-107899000D01*
X120412299Y-63462299D02*
X120412299Y-67587701D01*
X116500000Y-71500000D02*
X116500000Y-105000000D01*
X120412299Y-67587701D02*
X116500000Y-71500000D01*
X35144682Y-110005375D02*
X37251057Y-107899000D01*
X120575000Y-61212299D02*
X120412299Y-61375000D01*
X116500000Y-105000000D02*
X113601000Y-107899000D01*
X120575000Y-61100000D02*
X120575000Y-61212299D01*
X35144682Y-117993212D02*
X35144682Y-110005375D01*
%TO.N,Vol Down*%
X120412299Y-78712701D02*
X120575000Y-78550000D01*
X120412299Y-78550000D02*
X120412299Y-79375000D01*
X120412299Y-79375000D02*
X120412299Y-88412299D01*
X35000000Y-118986424D02*
X35000000Y-124000000D01*
X43085424Y-110901000D02*
X35000000Y-118986424D01*
X122000000Y-90000000D02*
X122000000Y-105535899D01*
X116634899Y-110901000D02*
X43085424Y-110901000D01*
X120412299Y-79375000D02*
X120412299Y-78712701D01*
X122000000Y-105535899D02*
X116634899Y-110901000D01*
X120412299Y-88412299D02*
X122000000Y-90000000D01*
D32*
%TO.N,GPIO22*%
X55275000Y-68925000D02*
X59755000Y-68925000D01*
X52825000Y-72375000D02*
X52825000Y-71375000D01*
X52825000Y-71375000D02*
X55275000Y-68925000D01*
D31*
%TO.N,Line 3*%
X110000000Y-127000000D02*
X110634346Y-127634346D01*
X42134346Y-128423756D02*
X43558102Y-127000000D01*
X60000000Y-127000000D02*
X65500000Y-127000000D01*
X110634346Y-127634346D02*
X110634346Y-128423756D01*
X59325000Y-127000000D02*
X60000000Y-127000000D01*
X50825000Y-127000000D02*
X51500000Y-127000000D01*
X102500000Y-127000000D02*
X110000000Y-127000000D01*
X67825000Y-127000000D02*
X68500000Y-127000000D01*
X76325000Y-127000000D02*
X77000000Y-127000000D01*
X93325000Y-127000000D02*
X94000000Y-127000000D01*
X84825000Y-127000000D02*
X85500000Y-127000000D01*
X102108836Y-127000000D02*
X102500000Y-127000000D01*
%TO.N,SCLK*%
X77825000Y-103375000D02*
X78825000Y-104375000D01*
X59755000Y-79085000D02*
X61144000Y-80474000D01*
X84749000Y-101906100D02*
X83410000Y-100567100D01*
X63504000Y-85554000D02*
X77825000Y-99875000D01*
X62004000Y-85554000D02*
X63504000Y-85554000D01*
X77825000Y-99875000D02*
X77825000Y-103375000D01*
X84325000Y-104375000D02*
X84749000Y-103951000D01*
X78825000Y-104375000D02*
X84325000Y-104375000D01*
X61144000Y-84694000D02*
X62004000Y-85554000D01*
X83410000Y-100567100D02*
X83410000Y-100000000D01*
X84749000Y-103951000D02*
X84749000Y-101906100D01*
X61144000Y-80474000D02*
X61144000Y-84694000D01*
%TO.N,MOSI*%
X61125000Y-75375000D02*
X59755000Y-74005000D01*
X84825000Y-97375000D02*
X63825000Y-76375000D01*
X63825000Y-76375000D02*
X63825000Y-75875000D01*
X63325000Y-75375000D02*
X61125000Y-75375000D01*
X63825000Y-75875000D02*
X63325000Y-75375000D01*
%TO.N,MISO*%
X82800735Y-97899265D02*
X82349265Y-97899265D01*
X62712760Y-77875000D02*
X63575000Y-78737240D01*
X82349265Y-97899265D02*
X63575000Y-79125000D01*
X59755000Y-76545000D02*
X61085000Y-77875000D01*
X63575000Y-78737240D02*
X63575000Y-79125000D01*
X61085000Y-77875000D02*
X62712760Y-77875000D01*
D33*
%TO.N,CPGND*%
X98825000Y-96375000D02*
X98825000Y-91875000D01*
X113825000Y-93875000D02*
X111325000Y-96375000D01*
X79325000Y-83875000D02*
X81325000Y-83875000D01*
X114325000Y-93875000D02*
X113825000Y-93875000D01*
X77325000Y-81875000D02*
X79325000Y-83875000D01*
%TD*%
M02*
