M48
; DRILL file {KiCad 9.0.1} date 2025-07-11T00:17:56-0700
; FORMAT={-:-/ absolute / metric / decimal}
; #@! TF.CreationDate,2025-07-11T00:17:56-07:00
; #@! TF.GenerationSoftware,Kicad,Pcbnew,9.0.1
; #@! TF.FileFunction,Plated,1,4,PTH
FMAT,2
METRIC
; #@! TA.AperFunction,Plated,PTH,ViaDrill
T1C0.300
; #@! TA.AperFunction,Plated,PTH,ComponentDrill
T2C0.600
; #@! TA.AperFunction,Plated,PTH,ComponentDrill
T3C0.750
; #@! TA.AperFunction,Plated,PTH,ComponentDrill
T4C0.800
; #@! TA.AperFunction,Plated,PTH,ComponentDrill
T5C0.990
; #@! TA.AperFunction,Plated,PTH,ComponentDrill
T6C1.000
; #@! TA.AperFunction,Plated,PTH,ComponentDrill
T7C1.300
; #@! TA.AperFunction,Plated,PTH,ComponentDrill
T8C2.200
%
G90
G05
T1
X35.0Y-124.0
X35.145Y-117.993
X36.7Y-115.6
X37.0Y-117.836
X37.5Y-108.5
X38.0Y-129.0
X39.19Y-116.486
X40.499Y-120.375
X40.5Y-129.0
X43.4Y-125.5
X43.825Y-134.875
X44.0Y-120.0
X44.0Y-150.0
X44.825Y-99.875
X46.0Y-140.5
X47.0Y-131.0
X48.5Y-136.0
X48.825Y-53.875
X48.825Y-56.375
X50.5Y-116.0
X50.825Y-162.375
X51.325Y-50.875
X51.325Y-59.375
X51.325Y-66.375
X51.325Y-154.875
X51.5Y-126.0
X51.825Y-53.875
X51.825Y-56.375
X52.325Y-112.4
X52.5Y-120.0
X52.825Y-72.375
X53.0Y-156.375
X53.548Y-161.974
X54.325Y-152.875
X54.548Y-157.474
X54.548Y-162.783
X55.048Y-160.974
X56.0Y-150.0
X56.194Y-128.833
X56.5Y-130.0
X56.5Y-140.0
X56.825Y-64.375
X56.825Y-111.875
X57.325Y-152.875
X57.548Y-160.986
X57.825Y-128.875
X58.017Y-161.686
X61.0Y-120.0
X61.0Y-135.0
X62.0Y-116.0
X64.5Y-150.0
X65.0Y-130.0
X65.0Y-140.0
X65.5Y-127.0
X66.325Y-162.375
X66.5Y-137.0
X66.548Y-159.474
X66.548Y-160.974
X67.325Y-155.875
X69.0Y-146.5
X69.5Y-120.0
X70.701Y-95.875
X71.325Y-158.875
X71.825Y-136.375
X72.454Y-157.315
X73.325Y-66.875
X73.5Y-116.0
X73.5Y-130.0
X73.5Y-140.0
X73.954Y-155.815
X75.325Y-158.875
X75.825Y-136.375
X76.482Y-44.745
X76.482Y-47.285
X76.482Y-49.825
X76.482Y-52.365
X76.482Y-54.905
X76.482Y-57.445
X77.325Y-64.875
X77.325Y-81.875
X77.825Y-73.375
X77.825Y-76.125
X78.0Y-120.0
X78.996Y-59.459
X79.021Y-44.745
X79.021Y-47.285
X79.021Y-49.825
X79.021Y-52.365
X79.021Y-54.905
X79.021Y-57.445
X79.325Y-82.15
X79.825Y-64.375
X80.825Y-82.15
X81.325Y-83.875
X81.899Y-59.459
X81.923Y-44.745
X81.923Y-47.285
X81.923Y-49.825
X81.923Y-52.365
X81.923Y-54.905
X81.923Y-57.445
X82.0Y-130.0
X82.0Y-140.0
X82.325Y-155.875
X82.325Y-157.875
X82.5Y-150.0
X82.801Y-97.899
X83.325Y-161.375
X84.325Y-73.375
X84.437Y-59.459
X84.462Y-44.745
X84.462Y-47.285
X84.462Y-49.825
X84.462Y-52.365
X84.462Y-54.905
X84.462Y-57.445
X84.643Y-156.375
X84.825Y-75.375
X84.825Y-97.375
X86.5Y-120.0
X86.646Y-64.346
X86.77Y-69.867
X86.825Y-82.875
X87.685Y-59.509
X87.71Y-44.795
X87.71Y-47.335
X87.71Y-49.875
X87.71Y-52.415
X87.71Y-54.955
X87.71Y-57.495
X87.74Y-67.191
X87.825Y-162.375
X88.325Y-80.375
X89.325Y-109.375
X90.223Y-59.509
X90.248Y-44.795
X90.248Y-47.335
X90.248Y-49.875
X90.248Y-52.415
X90.248Y-54.955
X90.248Y-57.495
X90.5Y-130.0
X90.5Y-140.0
X90.725Y-71.991
X91.325Y-96.875
X91.825Y-73.891
X91.825Y-162.875
X91.925Y-70.375
X91.925Y-71.375
X92.325Y-111.875
X92.762Y-59.509
X92.787Y-44.795
X92.787Y-47.335
X92.787Y-49.875
X92.787Y-52.415
X92.787Y-54.955
X92.787Y-57.495
X93.325Y-63.875
X93.825Y-89.375
X95.0Y-120.0
X95.148Y-63.942
X95.3Y-59.509
X95.325Y-44.795
X95.325Y-47.335
X95.325Y-49.875
X95.325Y-52.415
X95.325Y-54.955
X95.325Y-57.495
X95.825Y-162.375
X95.826Y-158.69
X97.839Y-59.509
X97.863Y-44.795
X97.863Y-47.335
X97.863Y-49.875
X97.863Y-52.415
X97.863Y-54.955
X97.863Y-57.495
X98.078Y-63.976
X98.825Y-91.875
X98.825Y-96.375
X99.0Y-130.0
X99.0Y-140.0
X99.5Y-150.0
X100.015Y-63.892
X100.377Y-59.509
X100.402Y-44.795
X100.402Y-47.335
X100.402Y-49.875
X100.402Y-52.415
X100.402Y-54.955
X100.402Y-57.495
X100.74Y-71.341
X101.369Y-72.831
X103.25Y-63.976
X103.569Y-66.031
X104.0Y-120.0
X105.24Y-74.691
X105.325Y-58.875
X105.825Y-158.875
X105.83Y-63.954
X106.85Y-78.54
X107.41Y-90.96
X107.5Y-130.0
X107.5Y-140.0
X107.825Y-96.375
X107.915Y-74.516
X109.5Y-150.0
X109.734Y-66.22
X109.756Y-70.202
X109.771Y-79.078
X111.325Y-46.875
X111.325Y-96.375
X111.825Y-156.375
X112.5Y-120.0
X114.325Y-93.875
X116.5Y-130.0
X118.5Y-140.0
X120.325Y-149.875
X120.5Y-120.0
T3
X80.325Y-69.325
X82.325Y-69.325
X85.468Y-157.875
X87.468Y-157.875
T4
X80.87Y-100.0
X80.87Y-102.54
X83.41Y-100.0
X83.41Y-102.54
X85.95Y-100.0
X85.95Y-102.54
X88.49Y-100.0
X88.49Y-102.54
X91.03Y-100.0
X91.03Y-102.54
X93.57Y-100.0
X93.57Y-102.54
X96.11Y-100.0
X96.11Y-102.54
X98.65Y-100.0
X98.65Y-102.54
X101.19Y-100.0
X101.19Y-102.54
X103.73Y-100.0
X103.73Y-102.54
X106.27Y-100.0
X106.27Y-102.54
X108.81Y-100.0
X108.81Y-102.54
X111.35Y-100.0
X111.35Y-102.54
T5
X120.575Y-56.6
X120.575Y-61.1
X120.575Y-74.05
X120.575Y-78.55
X120.575Y-91.5
X120.575Y-96.0
T6
X35.5Y-130.22
X35.5Y-132.76
X35.5Y-135.3
X35.5Y-137.84
X35.5Y-140.38
X35.5Y-142.92
X35.5Y-145.46
X35.5Y-148.0
X59.755Y-51.145
X59.755Y-53.685
X59.755Y-56.225
X59.755Y-58.765
X59.755Y-61.305
X59.755Y-63.845
X59.755Y-66.385
X59.755Y-68.925
X59.755Y-71.465
X59.755Y-74.005
X59.755Y-76.545
X59.755Y-79.085
X59.755Y-81.625
X59.755Y-84.165
X59.755Y-86.705
X59.755Y-89.245
X59.755Y-91.785
X59.755Y-94.325
X59.755Y-96.865
X59.755Y-99.405
X62.295Y-51.145
X62.295Y-53.685
X62.295Y-56.225
X62.295Y-58.765
X62.295Y-61.305
X62.295Y-63.845
X62.295Y-66.385
X62.295Y-68.925
X62.295Y-71.465
X62.295Y-74.005
X62.295Y-76.545
X62.295Y-79.085
X62.295Y-81.625
X62.295Y-84.165
X62.295Y-86.705
X62.295Y-89.245
X62.295Y-91.785
X62.295Y-94.325
X62.295Y-96.865
X62.295Y-99.405
X121.325Y-130.214
X121.325Y-132.754
X121.325Y-135.294
X121.325Y-137.834
X121.325Y-140.374
X121.325Y-142.914
X121.325Y-145.454
X121.325Y-147.994
T7
X118.085Y-55.34
X118.085Y-62.35
X118.085Y-72.79
X118.085Y-79.8
X118.085Y-90.24
X118.085Y-97.25
T8
X38.025Y-160.0
X119.0Y-46.275
X119.0Y-160.0
T2
G00X104.505Y-157.875
M15
G01X104.505Y-157.275
M16
G05
G00X104.505Y-161.675
M15
G01X104.505Y-161.075
M16
G05
G00X113.145Y-157.875
M15
G01X113.145Y-157.275
M16
G05
G00X113.145Y-161.675
M15
G01X113.145Y-161.075
M16
G05
M30
